<svg xmlns="http://www.w3.org/2000/svg" xmlns:xlink="http://www.w3.org/1999/xlink" width="1500" zoomAndPan="magnify" viewBox="0 0 1125 374.999991" height="500" preserveAspectRatio="xMidYMid meet" version="1.0"><defs><g/><clipPath id="655e56e5dd"><path d="M 276.476562 151.828125 L 848.523438 151.828125 L 848.523438 206.433594 L 276.476562 206.433594 Z M 276.476562 151.828125 " clip-rule="nonzero"/></clipPath></defs><g fill="#8c52ff" fill-opacity="1"><g transform="translate(4.218434, 278.366518)"><g><path d="M 5.015625 -2 C 9.691406 -3.207031 13.03125 -6.015625 15.03125 -10.421875 C 17.039062 -14.835938 18.046875 -20.722656 18.046875 -28.078125 L 18.046875 -200.53125 C 18.046875 -208.019531 17.039062 -213.9375 15.03125 -218.28125 C 13.03125 -222.625 9.691406 -225.394531 5.015625 -226.59375 L 5.015625 -228.609375 L 81.421875 -228.609375 L 125.9375 -91.640625 L 158.015625 -228.609375 L 235.21875 -228.609375 L 235.21875 -226.59375 C 230.539062 -225.394531 227.195312 -222.625 225.1875 -218.28125 C 223.1875 -213.9375 222.1875 -208.019531 222.1875 -200.53125 L 222.1875 -28.078125 C 222.1875 -20.722656 223.1875 -14.835938 225.1875 -10.421875 C 227.195312 -6.015625 230.539062 -3.207031 235.21875 -2 L 235.21875 0 L 144.984375 0 L 144.984375 -2 C 149.660156 -3.207031 153 -6.015625 155 -10.421875 C 157.007812 -14.835938 158.015625 -20.722656 158.015625 -28.078125 L 158.015625 -208.953125 L 109.09375 0 L 91.234375 0 L 22.0625 -213.171875 L 22.0625 -169.25 C 22.0625 -158.414062 22.695312 -146.984375 23.96875 -134.953125 C 25.238281 -122.921875 27.078125 -110.890625 29.484375 -98.859375 C 31.890625 -86.828125 34.757812 -75.296875 38.09375 -64.265625 C 41.4375 -53.234375 45.113281 -43.238281 49.125 -34.28125 C 53.132812 -25.332031 57.410156 -18.050781 61.953125 -12.4375 C 66.503906 -6.820312 71.253906 -3.34375 76.203125 -2 L 76.203125 0 L 5.015625 0 Z M 5.015625 -2 "/></g></g></g><g fill="#8c52ff" fill-opacity="1"><g transform="translate(238.433872, 278.366518)"><g><path d="M 0 0 L 0 -2 C 2.539062 -2 4.976562 -3.800781 7.3125 -7.40625 C 9.65625 -11.019531 11.863281 -15.632812 13.9375 -21.25 C 16.007812 -26.863281 17.914062 -32.8125 19.65625 -39.09375 C 21.394531 -45.382812 22.929688 -51.203125 24.265625 -56.546875 C 27.742188 -70.046875 30.914062 -82.507812 33.78125 -93.9375 C 36.65625 -105.375 39.394531 -116.335938 42 -126.828125 C 44.613281 -137.328125 47.222656 -147.820312 49.828125 -158.3125 C 52.441406 -168.8125 55.21875 -179.804688 58.15625 -191.296875 C 61.09375 -202.796875 64.234375 -215.234375 67.578125 -228.609375 L 133.953125 -228.609375 C 137.429688 -215.234375 140.609375 -202.796875 143.484375 -191.296875 C 146.359375 -179.804688 149.128906 -168.8125 151.796875 -158.3125 C 154.472656 -147.820312 157.144531 -137.328125 159.8125 -126.828125 C 162.488281 -116.335938 165.226562 -105.375 168.03125 -93.9375 C 170.84375 -82.507812 173.921875 -70.046875 177.265625 -56.546875 C 178.609375 -51.203125 180.144531 -45.382812 181.875 -39.09375 C 183.613281 -32.8125 185.519531 -26.863281 187.59375 -21.25 C 189.664062 -15.632812 191.867188 -11.019531 194.203125 -7.40625 C 196.546875 -3.800781 198.988281 -2 201.53125 -2 L 201.53125 0 L 100.875 0 L 100.875 -2 C 105.8125 -5.75 108.984375 -11.164062 110.390625 -18.25 C 111.796875 -25.332031 112.128906 -33.382812 111.390625 -42.40625 C 110.660156 -51.4375 109.289062 -60.628906 107.28125 -69.984375 L 50.734375 -69.984375 C 52.066406 -54.472656 55.171875 -40.96875 60.046875 -29.46875 C 64.929688 -17.976562 72.054688 -8.820312 81.421875 -2 L 81.421875 0 Z M 69.390625 -221.78125 C 62.703125 -192.507812 57.585938 -165.441406 54.046875 -140.578125 C 50.503906 -115.710938 49.332031 -93.519531 50.53125 -74 L 106.484375 -74 C 105.273438 -79.207031 104.035156 -84.316406 102.765625 -89.328125 C 101.503906 -94.347656 100.335938 -99.128906 99.265625 -103.671875 C 96.859375 -113.035156 94.71875 -121.390625 92.84375 -128.734375 C 90.96875 -136.085938 89.195312 -143.070312 87.53125 -149.6875 C 85.863281 -156.3125 84.160156 -163.097656 82.421875 -170.046875 C 80.679688 -177.003906 78.773438 -184.625 76.703125 -192.90625 C 74.628906 -201.195312 72.191406 -210.820312 69.390625 -221.78125 Z M 69.390625 -221.78125 "/></g></g></g><g fill="#8c52ff" fill-opacity="1"><g transform="translate(433.947624, 278.366518)"><g><path d="M 0 0 L 0 -2 C 2.539062 -2 4.976562 -3.800781 7.3125 -7.40625 C 9.65625 -11.019531 11.863281 -15.632812 13.9375 -21.25 C 16.007812 -26.863281 17.914062 -32.8125 19.65625 -39.09375 C 21.394531 -45.382812 22.929688 -51.203125 24.265625 -56.546875 C 27.742188 -70.046875 30.914062 -82.507812 33.78125 -93.9375 C 36.65625 -105.375 39.394531 -116.335938 42 -126.828125 C 44.613281 -137.328125 47.222656 -147.820312 49.828125 -158.3125 C 52.441406 -168.8125 55.21875 -179.804688 58.15625 -191.296875 C 61.09375 -202.796875 64.234375 -215.234375 67.578125 -228.609375 L 133.953125 -228.609375 C 137.429688 -215.234375 140.609375 -202.796875 143.484375 -191.296875 C 146.359375 -179.804688 149.128906 -168.8125 151.796875 -158.3125 C 154.472656 -147.820312 157.144531 -137.328125 159.8125 -126.828125 C 162.488281 -116.335938 165.226562 -105.375 168.03125 -93.9375 C 170.84375 -82.507812 173.921875 -70.046875 177.265625 -56.546875 C 178.609375 -51.203125 180.144531 -45.382812 181.875 -39.09375 C 183.613281 -32.8125 185.519531 -26.863281 187.59375 -21.25 C 189.664062 -15.632812 191.867188 -11.019531 194.203125 -7.40625 C 196.546875 -3.800781 198.988281 -2 201.53125 -2 L 201.53125 0 L 100.875 0 L 100.875 -2 C 105.8125 -5.75 108.984375 -11.164062 110.390625 -18.25 C 111.796875 -25.332031 112.128906 -33.382812 111.390625 -42.40625 C 110.660156 -51.4375 109.289062 -60.628906 107.28125 -69.984375 L 50.734375 -69.984375 C 52.066406 -54.472656 55.171875 -40.96875 60.046875 -29.46875 C 64.929688 -17.976562 72.054688 -8.820312 81.421875 -2 L 81.421875 0 Z M 69.390625 -221.78125 C 62.703125 -192.507812 57.585938 -165.441406 54.046875 -140.578125 C 50.503906 -115.710938 49.332031 -93.519531 50.53125 -74 L 106.484375 -74 C 105.273438 -79.207031 104.035156 -84.316406 102.765625 -89.328125 C 101.503906 -94.347656 100.335938 -99.128906 99.265625 -103.671875 C 96.859375 -113.035156 94.71875 -121.390625 92.84375 -128.734375 C 90.96875 -136.085938 89.195312 -143.070312 87.53125 -149.6875 C 85.863281 -156.3125 84.160156 -163.097656 82.421875 -170.046875 C 80.679688 -177.003906 78.773438 -184.625 76.703125 -192.90625 C 74.628906 -201.195312 72.191406 -210.820312 69.390625 -221.78125 Z M 69.390625 -221.78125 "/></g></g></g><g fill="#8c52ff" fill-opacity="1"><g transform="translate(629.461376, 278.366518)"><g><path d="M 5.015625 0 L 5.015625 -2 C 9.691406 -3.207031 13.03125 -6.015625 15.03125 -10.421875 C 17.039062 -14.835938 18.046875 -20.722656 18.046875 -28.078125 L 18.046875 -200.53125 C 18.046875 -208.019531 17.039062 -213.9375 15.03125 -218.28125 C 13.03125 -222.625 9.691406 -225.394531 5.015625 -226.59375 L 5.015625 -228.609375 L 95.25 -228.609375 L 95.25 -226.59375 C 90.570312 -225.394531 87.226562 -222.625 85.21875 -218.28125 C 83.21875 -213.9375 82.21875 -208.019531 82.21875 -200.53125 L 82.21875 -28.078125 C 82.21875 -20.722656 83.21875 -14.835938 85.21875 -10.421875 C 87.226562 -6.015625 90.570312 -3.207031 95.25 -2 L 95.25 0 Z M 5.015625 0 "/></g></g></g><g fill="#8c52ff" fill-opacity="1"><g transform="translate(723.70892, 278.366518)"><g><path d="M 0 0 L 0 -2 C 2.539062 -2 4.976562 -3.800781 7.3125 -7.40625 C 9.65625 -11.019531 11.863281 -15.632812 13.9375 -21.25 C 16.007812 -26.863281 17.914062 -32.8125 19.65625 -39.09375 C 21.394531 -45.382812 22.929688 -51.203125 24.265625 -56.546875 C 27.742188 -70.046875 30.914062 -82.507812 33.78125 -93.9375 C 36.65625 -105.375 39.394531 -116.335938 42 -126.828125 C 44.613281 -137.328125 47.222656 -147.820312 49.828125 -158.3125 C 52.441406 -168.8125 55.21875 -179.804688 58.15625 -191.296875 C 61.09375 -202.796875 64.234375 -215.234375 67.578125 -228.609375 L 133.953125 -228.609375 C 137.429688 -215.234375 140.609375 -202.796875 143.484375 -191.296875 C 146.359375 -179.804688 149.128906 -168.8125 151.796875 -158.3125 C 154.472656 -147.820312 157.144531 -137.328125 159.8125 -126.828125 C 162.488281 -116.335938 165.226562 -105.375 168.03125 -93.9375 C 170.84375 -82.507812 173.921875 -70.046875 177.265625 -56.546875 C 178.609375 -51.203125 180.144531 -45.382812 181.875 -39.09375 C 183.613281 -32.8125 185.519531 -26.863281 187.59375 -21.25 C 189.664062 -15.632812 191.867188 -11.019531 194.203125 -7.40625 C 196.546875 -3.800781 198.988281 -2 201.53125 -2 L 201.53125 0 L 100.875 0 L 100.875 -2 C 105.8125 -5.75 108.984375 -11.164062 110.390625 -18.25 C 111.796875 -25.332031 112.128906 -33.382812 111.390625 -42.40625 C 110.660156 -51.4375 109.289062 -60.628906 107.28125 -69.984375 L 50.734375 -69.984375 C 52.066406 -54.472656 55.171875 -40.96875 60.046875 -29.46875 C 64.929688 -17.976562 72.054688 -8.820312 81.421875 -2 L 81.421875 0 Z M 69.390625 -221.78125 C 62.703125 -192.507812 57.585938 -165.441406 54.046875 -140.578125 C 50.503906 -115.710938 49.332031 -93.519531 50.53125 -74 L 106.484375 -74 C 105.273438 -79.207031 104.035156 -84.316406 102.765625 -89.328125 C 101.503906 -94.347656 100.335938 -99.128906 99.265625 -103.671875 C 96.859375 -113.035156 94.71875 -121.390625 92.84375 -128.734375 C 90.96875 -136.085938 89.195312 -143.070312 87.53125 -149.6875 C 85.863281 -156.3125 84.160156 -163.097656 82.421875 -170.046875 C 80.679688 -177.003906 78.773438 -184.625 76.703125 -192.90625 C 74.628906 -201.195312 72.191406 -210.820312 69.390625 -221.78125 Z M 69.390625 -221.78125 "/></g></g></g><g fill="#8c52ff" fill-opacity="1"><g transform="translate(919.22262, 278.366518)"><g><path d="M 0 0 L 0 -2 C 2.539062 -2 4.976562 -3.800781 7.3125 -7.40625 C 9.65625 -11.019531 11.863281 -15.632812 13.9375 -21.25 C 16.007812 -26.863281 17.914062 -32.8125 19.65625 -39.09375 C 21.394531 -45.382812 22.929688 -51.203125 24.265625 -56.546875 C 27.742188 -70.046875 30.914062 -82.507812 33.78125 -93.9375 C 36.65625 -105.375 39.394531 -116.335938 42 -126.828125 C 44.613281 -137.328125 47.222656 -147.820312 49.828125 -158.3125 C 52.441406 -168.8125 55.21875 -179.804688 58.15625 -191.296875 C 61.09375 -202.796875 64.234375 -215.234375 67.578125 -228.609375 L 133.953125 -228.609375 C 137.429688 -215.234375 140.609375 -202.796875 143.484375 -191.296875 C 146.359375 -179.804688 149.128906 -168.8125 151.796875 -158.3125 C 154.472656 -147.820312 157.144531 -137.328125 159.8125 -126.828125 C 162.488281 -116.335938 165.226562 -105.375 168.03125 -93.9375 C 170.84375 -82.507812 173.921875 -70.046875 177.265625 -56.546875 C 178.609375 -51.203125 180.144531 -45.382812 181.875 -39.09375 C 183.613281 -32.8125 185.519531 -26.863281 187.59375 -21.25 C 189.664062 -15.632812 191.867188 -11.019531 194.203125 -7.40625 C 196.546875 -3.800781 198.988281 -2 201.53125 -2 L 201.53125 0 L 100.875 0 L 100.875 -2 C 105.8125 -5.75 108.984375 -11.164062 110.390625 -18.25 C 111.796875 -25.332031 112.128906 -33.382812 111.390625 -42.40625 C 110.660156 -51.4375 109.289062 -60.628906 107.28125 -69.984375 L 50.734375 -69.984375 C 52.066406 -54.472656 55.171875 -40.96875 60.046875 -29.46875 C 64.929688 -17.976562 72.054688 -8.820312 81.421875 -2 L 81.421875 0 Z M 69.390625 -221.78125 C 62.703125 -192.507812 57.585938 -165.441406 54.046875 -140.578125 C 50.503906 -115.710938 49.332031 -93.519531 50.53125 -74 L 106.484375 -74 C 105.273438 -79.207031 104.035156 -84.316406 102.765625 -89.328125 C 101.503906 -94.347656 100.335938 -99.128906 99.265625 -103.671875 C 96.859375 -113.035156 94.71875 -121.390625 92.84375 -128.734375 C 90.96875 -136.085938 89.195312 -143.070312 87.53125 -149.6875 C 85.863281 -156.3125 84.160156 -163.097656 82.421875 -170.046875 C 80.679688 -177.003906 78.773438 -184.625 76.703125 -192.90625 C 74.628906 -201.195312 72.191406 -210.820312 69.390625 -221.78125 Z M 69.390625 -221.78125 "/></g></g></g><g clip-path="url(#655e56e5dd)"><path fill="#8c52ff" d="M 276.476562 151.828125 L 848.5625 151.828125 L 848.5625 206.433594 L 276.476562 206.433594 Z M 276.476562 151.828125 " fill-opacity="1" fill-rule="nonzero"/></g><g fill="#231f20" fill-opacity="1"><g transform="translate(343.434755, 184.917745)"><g><path d="M 2.328125 0 L 2.328125 -20.890625 L 17.453125 -20.890625 L 17.453125 -18.453125 L 5.046875 -18.453125 L 5.046875 -12.03125 L 16.640625 -12.03125 L 16.640625 -9.578125 L 5.046875 -9.578125 L 5.046875 -2.453125 L 17.890625 -2.453125 L 17.890625 0 Z M 2.328125 0 "/></g></g></g><g fill="#231f20" fill-opacity="1"><g transform="translate(386.218877, 184.917745)"><g><path d="M 2.25 0 L 2.25 -20.890625 L 5.046875 -20.890625 L 16.03125 -4.53125 L 16.03125 -20.890625 L 18.703125 -20.890625 L 18.703125 0 L 15.84375 0 L 4.875 -16.4375 L 4.875 0 Z M 2.25 0 "/></g></g></g><g fill="#231f20" fill-opacity="1"><g transform="translate(430.608136, 184.917745)"><g><path d="M 7.5625 0 L 7.5625 -18.453125 L 0.671875 -18.453125 L 0.671875 -20.890625 L 17.28125 -20.890625 L 17.28125 -18.453125 L 10.328125 -18.453125 L 10.328125 0 Z M 7.5625 0 "/></g></g></g><g fill="#231f20" fill-opacity="1"><g transform="translate(471.757954, 184.917745)"><g><path d="M 2.328125 0 L 2.328125 -20.890625 L 17.453125 -20.890625 L 17.453125 -18.453125 L 5.046875 -18.453125 L 5.046875 -12.03125 L 16.640625 -12.03125 L 16.640625 -9.578125 L 5.046875 -9.578125 L 5.046875 -2.453125 L 17.890625 -2.453125 L 17.890625 0 Z M 2.328125 0 "/></g></g></g><g fill="#231f20" fill-opacity="1"><g transform="translate(514.542072, 184.917745)"><g><path d="M 2.28125 0 L 2.28125 -20.890625 L 11.53125 -20.890625 C 14.175781 -20.890625 16.082031 -20.476562 17.25 -19.65625 C 18.414062 -18.832031 19 -17.347656 19 -15.203125 C 19 -11.921875 17.035156 -10.015625 13.109375 -9.484375 C 14.484375 -8.921875 15.816406 -7.65625 17.109375 -5.6875 L 20.71875 0 L 17.21875 0 L 14.5 -4.34375 C 14.113281 -4.96875 13.695312 -5.578125 13.25 -6.171875 C 12.800781 -6.765625 12.367188 -7.296875 11.953125 -7.765625 C 11.535156 -8.234375 11.015625 -8.609375 10.390625 -8.890625 C 9.765625 -9.171875 9.066406 -9.3125 8.296875 -9.3125 L 5.046875 -9.3125 L 5.046875 0 Z M 5.046875 -11.671875 L 11 -11.671875 C 14.425781 -11.671875 16.140625 -12.847656 16.140625 -15.203125 C 16.140625 -17.484375 14.648438 -18.625 11.671875 -18.625 L 5.046875 -18.625 Z M 5.046875 -11.671875 "/></g></g></g><g fill="#231f20" fill-opacity="1"><g transform="translate(558.931326, 184.917745)"><g><path d="M 2.25 0 L 2.25 -20.890625 L 10.15625 -20.890625 C 12.800781 -20.890625 14.804688 -20.414062 16.171875 -19.46875 C 17.535156 -18.53125 18.21875 -16.992188 18.21875 -14.859375 C 18.21875 -10.617188 15.609375 -8.5 10.390625 -8.5 L 5.015625 -8.5 L 5.015625 0 Z M 15.359375 -14.765625 C 15.359375 -16.171875 14.953125 -17.132812 14.140625 -17.65625 C 13.335938 -18.1875 12.085938 -18.453125 10.390625 -18.453125 L 5.015625 -18.453125 L 5.015625 -10.96875 L 10.421875 -10.96875 C 13.710938 -10.96875 15.359375 -12.234375 15.359375 -14.765625 Z M 15.359375 -14.765625 "/></g></g></g><g fill="#231f20" fill-opacity="1"><g transform="translate(601.715443, 184.917745)"><g><path d="M 2.28125 0 L 2.28125 -20.890625 L 11.53125 -20.890625 C 14.175781 -20.890625 16.082031 -20.476562 17.25 -19.65625 C 18.414062 -18.832031 19 -17.347656 19 -15.203125 C 19 -11.921875 17.035156 -10.015625 13.109375 -9.484375 C 14.484375 -8.921875 15.816406 -7.65625 17.109375 -5.6875 L 20.71875 0 L 17.21875 0 L 14.5 -4.34375 C 14.113281 -4.96875 13.695312 -5.578125 13.25 -6.171875 C 12.800781 -6.765625 12.367188 -7.296875 11.953125 -7.765625 C 11.535156 -8.234375 11.015625 -8.609375 10.390625 -8.890625 C 9.765625 -9.171875 9.066406 -9.3125 8.296875 -9.3125 L 5.046875 -9.3125 L 5.046875 0 Z M 5.046875 -11.671875 L 11 -11.671875 C 14.425781 -11.671875 16.140625 -12.847656 16.140625 -15.203125 C 16.140625 -17.484375 14.648438 -18.625 11.671875 -18.625 L 5.046875 -18.625 Z M 5.046875 -11.671875 "/></g></g></g><g fill="#231f20" fill-opacity="1"><g transform="translate(646.104697, 184.917745)"><g><path d="M 2.75 0 L 2.75 -20.890625 L 5.515625 -20.890625 L 5.515625 0 Z M 2.75 0 "/></g></g></g><g fill="#231f20" fill-opacity="1"><g transform="translate(677.536117, 184.917745)"><g><path d="M 17.953125 -5.890625 C 17.953125 -3.984375 17.222656 -2.46875 15.765625 -1.34375 C 14.316406 -0.21875 12.476562 0.34375 10.25 0.34375 C 7.539062 0.34375 5.398438 -0.25 3.828125 -1.4375 C 2.265625 -2.632812 1.414062 -4.394531 1.28125 -6.71875 L 3.9375 -6.953125 C 4.34375 -3.710938 6.394531 -2.09375 10.09375 -2.09375 C 10.894531 -2.09375 11.65625 -2.1875 12.375 -2.375 C 13.09375 -2.5625 13.757812 -2.9375 14.375 -3.5 C 14.988281 -4.0625 15.296875 -4.789062 15.296875 -5.6875 C 15.296875 -6.820312 14.835938 -7.632812 13.921875 -8.125 C 13.003906 -8.625 11.332031 -9.132812 8.90625 -9.65625 C 6.550781 -10.238281 4.828125 -10.976562 3.734375 -11.875 C 2.640625 -12.769531 2.09375 -13.988281 2.09375 -15.53125 C 2.09375 -17.351562 2.785156 -18.757812 4.171875 -19.75 C 5.554688 -20.75 7.304688 -21.25 9.421875 -21.25 C 11.773438 -21.25 13.65625 -20.71875 15.0625 -19.65625 C 16.476562 -18.59375 17.226562 -17.03125 17.3125 -14.96875 L 14.6875 -14.796875 C 14.425781 -17.484375 12.722656 -18.828125 9.578125 -18.828125 C 6.378906 -18.828125 4.78125 -17.785156 4.78125 -15.703125 C 4.78125 -14.742188 5.160156 -14.035156 5.921875 -13.578125 C 6.679688 -13.128906 7.957031 -12.71875 9.75 -12.34375 C 10.238281 -12.269531 10.773438 -12.148438 11.359375 -11.984375 C 11.941406 -11.816406 12.535156 -11.644531 13.140625 -11.46875 C 13.753906 -11.289062 14.347656 -11.035156 14.921875 -10.703125 C 15.503906 -10.378906 16.019531 -10.015625 16.46875 -9.609375 C 16.914062 -9.210938 17.273438 -8.691406 17.546875 -8.046875 C 17.816406 -7.410156 17.953125 -6.691406 17.953125 -5.890625 Z M 17.953125 -5.890625 "/></g></g></g><g fill="#231f20" fill-opacity="1"><g transform="translate(720.320251, 184.917745)"><g><path d="M 2.328125 0 L 2.328125 -20.890625 L 17.453125 -20.890625 L 17.453125 -18.453125 L 5.046875 -18.453125 L 5.046875 -12.03125 L 16.640625 -12.03125 L 16.640625 -9.578125 L 5.046875 -9.578125 L 5.046875 -2.453125 L 17.890625 -2.453125 L 17.890625 0 Z M 2.328125 0 "/></g></g></g><g fill="#231f20" fill-opacity="1"><g transform="translate(763.104385, 184.917745)"><g><path d="M 17.953125 -5.890625 C 17.953125 -3.984375 17.222656 -2.46875 15.765625 -1.34375 C 14.316406 -0.21875 12.476562 0.34375 10.25 0.34375 C 7.539062 0.34375 5.398438 -0.25 3.828125 -1.4375 C 2.265625 -2.632812 1.414062 -4.394531 1.28125 -6.71875 L 3.9375 -6.953125 C 4.34375 -3.710938 6.394531 -2.09375 10.09375 -2.09375 C 10.894531 -2.09375 11.65625 -2.1875 12.375 -2.375 C 13.09375 -2.5625 13.757812 -2.9375 14.375 -3.5 C 14.988281 -4.0625 15.296875 -4.789062 15.296875 -5.6875 C 15.296875 -6.820312 14.835938 -7.632812 13.921875 -8.125 C 13.003906 -8.625 11.332031 -9.132812 8.90625 -9.65625 C 6.550781 -10.238281 4.828125 -10.976562 3.734375 -11.875 C 2.640625 -12.769531 2.09375 -13.988281 2.09375 -15.53125 C 2.09375 -17.351562 2.785156 -18.757812 4.171875 -19.75 C 5.554688 -20.75 7.304688 -21.25 9.421875 -21.25 C 11.773438 -21.25 13.65625 -20.71875 15.0625 -19.65625 C 16.476562 -18.59375 17.226562 -17.03125 17.3125 -14.96875 L 14.6875 -14.796875 C 14.425781 -17.484375 12.722656 -18.828125 9.578125 -18.828125 C 6.378906 -18.828125 4.78125 -17.785156 4.78125 -15.703125 C 4.78125 -14.742188 5.160156 -14.035156 5.921875 -13.578125 C 6.679688 -13.128906 7.957031 -12.71875 9.75 -12.34375 C 10.238281 -12.269531 10.773438 -12.148438 11.359375 -11.984375 C 11.941406 -11.816406 12.535156 -11.644531 13.140625 -11.46875 C 13.753906 -11.289062 14.347656 -11.035156 14.921875 -10.703125 C 15.503906 -10.378906 16.019531 -10.015625 16.46875 -9.609375 C 16.914062 -9.210938 17.273438 -8.691406 17.546875 -8.046875 C 17.816406 -7.410156 17.953125 -6.691406 17.953125 -5.890625 Z M 17.953125 -5.890625 "/></g></g></g></svg>