<svg xmlns="http://www.w3.org/2000/svg" xmlns:xlink="http://www.w3.org/1999/xlink" width="312" zoomAndPan="magnify" viewBox="0 0 234 54" height="72" preserveAspectRatio="xMidYMid meet" version="1.0"><defs><g/></defs><g fill="#5c00a4" fill-opacity="1"><g transform="translate(23.191143, 33.046847)"><g><path d="M 53.484375 -3.96875 C 53.484375 -3.101562 53.769531 -2.332031 54.34375 -1.65625 C 54.925781 -0.988281 55.625 -0.582031 56.4375 -0.4375 L 56.4375 0 L 39.71875 0 L 39.71875 -0.4375 C 40.53125 -0.582031 41.222656 -0.988281 41.796875 -1.65625 C 42.378906 -2.332031 42.671875 -3.101562 42.671875 -3.96875 L 42.671875 -25.234375 C 42.671875 -26.472656 42.984375 -27.453125 43.609375 -28.171875 C 44.234375 -28.898438 44.859375 -29.585938 45.484375 -30.234375 C 46.109375 -30.878906 46.421875 -31.632812 46.421875 -32.5 C 46.421875 -33.320312 45.953125 -33.945312 45.015625 -34.375 C 44.078125 -34.8125 42.910156 -35.03125 41.515625 -35.03125 C 39.453125 -35.03125 37.613281 -34.679688 36 -33.984375 C 34.394531 -33.285156 33.375 -32.769531 32.9375 -32.4375 C 34 -30.945312 34.53125 -28.878906 34.53125 -26.234375 L 34.53125 -3.96875 C 34.53125 -3.101562 34.816406 -2.332031 35.390625 -1.65625 C 35.960938 -0.988281 36.660156 -0.582031 37.484375 -0.4375 L 37.484375 0 L 20.765625 0 L 20.765625 -0.4375 C 21.578125 -0.582031 22.269531 -0.988281 22.84375 -1.65625 C 23.425781 -2.332031 23.71875 -3.101562 23.71875 -3.96875 L 23.71875 -25.234375 C 23.71875 -26.472656 24.03125 -27.453125 24.65625 -28.171875 C 25.28125 -28.898438 25.90625 -29.585938 26.53125 -30.234375 C 27.15625 -30.878906 27.46875 -31.632812 27.46875 -32.5 C 27.46875 -33.320312 27.007812 -33.945312 26.09375 -34.375 C 25.175781 -34.8125 24 -35.03125 22.5625 -35.03125 C 20.351562 -35.03125 18.019531 -34.476562 15.5625 -33.375 L 15.5625 -3.96875 C 15.5625 -3.101562 15.847656 -2.332031 16.421875 -1.65625 C 17.003906 -0.988281 17.707031 -0.582031 18.53125 -0.4375 L 18.53125 0 L 1.796875 0 L 1.796875 -0.4375 C 2.617188 -0.582031 3.316406 -0.988281 3.890625 -1.65625 C 4.460938 -2.332031 4.75 -3.101562 4.75 -3.96875 L 4.75 -29.625 C 4.75 -30.539062 4.460938 -31.320312 3.890625 -31.96875 C 3.316406 -32.613281 2.617188 -33.007812 1.796875 -33.15625 L 1.796875 -33.59375 L 14.125 -35.390625 C 14.175781 -35.390625 14.210938 -35.390625 14.234375 -35.390625 C 14.253906 -35.390625 14.289062 -35.390625 14.34375 -35.390625 C 15.15625 -35.390625 15.5625 -34.984375 15.5625 -34.171875 L 15.5625 -33.875 C 16.8125 -34.5 18.226562 -35.015625 19.8125 -35.421875 C 21.40625 -35.835938 23.015625 -36.066406 24.640625 -36.109375 C 26.273438 -36.160156 27.800781 -35.929688 29.21875 -35.421875 C 30.644531 -34.921875 31.8125 -34.046875 32.71875 -32.796875 C 34.445312 -33.953125 36.320312 -34.789062 38.34375 -35.3125 C 40.363281 -35.84375 42.164062 -36.109375 43.75 -36.109375 C 45.476562 -36.109375 47.078125 -35.796875 48.546875 -35.171875 C 50.015625 -34.546875 51.203125 -33.523438 52.109375 -32.109375 C 53.023438 -30.691406 53.484375 -28.734375 53.484375 -26.234375 Z M 53.484375 -3.96875 "/></g></g></g><g fill="#5c00a4" fill-opacity="1"><g transform="translate(73.711793, 33.046847)"><g><path d="M 32.140625 -5.40625 C 32.140625 -4.539062 32.425781 -3.769531 33 -3.09375 C 33.582031 -2.425781 34.285156 -2.019531 35.109375 -1.875 L 35.109375 -1.4375 L 22.703125 0.359375 C 22.703125 0.359375 22.6875 0.359375 22.65625 0.359375 C 22.632812 0.359375 22.601562 0.359375 22.5625 0.359375 C 22.226562 0.359375 21.925781 0.226562 21.65625 -0.03125 C 21.394531 -0.300781 21.265625 -0.601562 21.265625 -0.9375 L 21.265625 -2.734375 C 20.398438 -2.109375 19.234375 -1.4375 17.765625 -0.71875 C 16.296875 0 14.554688 0.359375 12.546875 0.359375 C 10.285156 0.359375 8.238281 -0.238281 6.40625 -1.4375 C 4.582031 -2.644531 3.410156 -4.253906 2.890625 -6.265625 C 2.304688 -8.335938 2.519531 -10.359375 3.53125 -12.328125 C 4.539062 -14.296875 6.03125 -15.878906 8 -17.078125 C 9.25 -17.847656 10.832031 -18.582031 12.75 -19.28125 C 14.675781 -19.976562 16.695312 -20.675781 18.8125 -21.375 C 20.925781 -22.070312 22.90625 -22.789062 24.75 -23.53125 C 26.601562 -24.28125 28.117188 -25.097656 29.296875 -25.984375 C 30.472656 -26.867188 31.0625 -27.863281 31.0625 -28.96875 C 31.0625 -29.9375 30.640625 -30.898438 29.796875 -31.859375 C 28.960938 -32.816406 27.96875 -33.585938 26.8125 -34.171875 C 25.414062 -34.835938 23.875 -35.289062 22.1875 -35.53125 C 20.507812 -35.769531 18.785156 -35.75 17.015625 -35.46875 C 14.273438 -35.082031 12.90625 -34.164062 12.90625 -32.71875 C 12.90625 -31.851562 13.164062 -31.109375 13.6875 -30.484375 C 14.21875 -29.859375 14.734375 -29.195312 15.234375 -28.5 C 15.742188 -27.8125 16 -26.910156 16 -25.796875 C 16 -24.265625 15.445312 -22.957031 14.34375 -21.875 C 13.238281 -20.789062 11.914062 -20.25 10.375 -20.25 C 8.84375 -20.25 7.535156 -20.789062 6.453125 -21.875 C 5.367188 -22.957031 4.828125 -24.265625 4.828125 -25.796875 C 4.828125 -27.671875 5.472656 -29.316406 6.765625 -30.734375 C 8.066406 -32.160156 9.664062 -33.316406 11.5625 -34.203125 C 13.46875 -35.085938 15.257812 -35.648438 16.9375 -35.890625 C 20.78125 -36.472656 24.144531 -36.019531 27.03125 -34.53125 C 28.425781 -33.851562 29.625 -32.898438 30.625 -31.671875 C 31.632812 -30.453125 32.140625 -28.953125 32.140625 -27.171875 Z M 21.265625 -3.25 L 21.265625 -21.765625 C 20.304688 -21.335938 19.238281 -20.75 18.0625 -20 C 16.882812 -19.257812 15.859375 -18.25 14.984375 -16.96875 C 14.117188 -15.695312 13.617188 -14.050781 13.484375 -12.03125 C 13.378906 -10.300781 13.519531 -8.773438 13.90625 -7.453125 C 14.289062 -6.140625 14.867188 -5.070312 15.640625 -4.25 C 16.453125 -3.382812 17.398438 -2.851562 18.484375 -2.65625 C 19.566406 -2.46875 20.492188 -2.664062 21.265625 -3.25 Z M 21.265625 -3.25 "/></g></g></g><g fill="#5c00a4" fill-opacity="1"><g transform="translate(102.899224, 33.046847)"><g><path d="M 32.140625 -5.40625 C 32.140625 -4.539062 32.425781 -3.769531 33 -3.09375 C 33.582031 -2.425781 34.285156 -2.019531 35.109375 -1.875 L 35.109375 -1.4375 L 22.703125 0.359375 C 22.703125 0.359375 22.6875 0.359375 22.65625 0.359375 C 22.632812 0.359375 22.601562 0.359375 22.5625 0.359375 C 22.226562 0.359375 21.925781 0.226562 21.65625 -0.03125 C 21.394531 -0.300781 21.265625 -0.601562 21.265625 -0.9375 L 21.265625 -2.734375 C 20.398438 -2.109375 19.234375 -1.4375 17.765625 -0.71875 C 16.296875 0 14.554688 0.359375 12.546875 0.359375 C 10.285156 0.359375 8.238281 -0.238281 6.40625 -1.4375 C 4.582031 -2.644531 3.410156 -4.253906 2.890625 -6.265625 C 2.304688 -8.335938 2.519531 -10.359375 3.53125 -12.328125 C 4.539062 -14.296875 6.03125 -15.878906 8 -17.078125 C 9.25 -17.847656 10.832031 -18.582031 12.75 -19.28125 C 14.675781 -19.976562 16.695312 -20.675781 18.8125 -21.375 C 20.925781 -22.070312 22.90625 -22.789062 24.75 -23.53125 C 26.601562 -24.28125 28.117188 -25.097656 29.296875 -25.984375 C 30.472656 -26.867188 31.0625 -27.863281 31.0625 -28.96875 C 31.0625 -29.9375 30.640625 -30.898438 29.796875 -31.859375 C 28.960938 -32.816406 27.96875 -33.585938 26.8125 -34.171875 C 25.414062 -34.835938 23.875 -35.289062 22.1875 -35.53125 C 20.507812 -35.769531 18.785156 -35.75 17.015625 -35.46875 C 14.273438 -35.082031 12.90625 -34.164062 12.90625 -32.71875 C 12.90625 -31.851562 13.164062 -31.109375 13.6875 -30.484375 C 14.21875 -29.859375 14.734375 -29.195312 15.234375 -28.5 C 15.742188 -27.8125 16 -26.910156 16 -25.796875 C 16 -24.265625 15.445312 -22.957031 14.34375 -21.875 C 13.238281 -20.789062 11.914062 -20.25 10.375 -20.25 C 8.84375 -20.25 7.535156 -20.789062 6.453125 -21.875 C 5.367188 -22.957031 4.828125 -24.265625 4.828125 -25.796875 C 4.828125 -27.671875 5.472656 -29.316406 6.765625 -30.734375 C 8.066406 -32.160156 9.664062 -33.316406 11.5625 -34.203125 C 13.46875 -35.085938 15.257812 -35.648438 16.9375 -35.890625 C 20.78125 -36.472656 24.144531 -36.019531 27.03125 -34.53125 C 28.425781 -33.851562 29.625 -32.898438 30.625 -31.671875 C 31.632812 -30.453125 32.140625 -28.953125 32.140625 -27.171875 Z M 21.265625 -3.25 L 21.265625 -21.765625 C 20.304688 -21.335938 19.238281 -20.75 18.0625 -20 C 16.882812 -19.257812 15.859375 -18.25 14.984375 -16.96875 C 14.117188 -15.695312 13.617188 -14.050781 13.484375 -12.03125 C 13.378906 -10.300781 13.519531 -8.773438 13.90625 -7.453125 C 14.289062 -6.140625 14.867188 -5.070312 15.640625 -4.25 C 16.453125 -3.382812 17.398438 -2.851562 18.484375 -2.65625 C 19.566406 -2.46875 20.492188 -2.664062 21.265625 -3.25 Z M 21.265625 -3.25 "/></g></g></g><g fill="#5c00a4" fill-opacity="1"><g transform="translate(132.086655, 33.046847)"><g><path d="M 4.75 -3.96875 L 4.75 -29.625 C 4.75 -30.539062 4.460938 -31.320312 3.890625 -31.96875 C 3.316406 -32.613281 2.617188 -33.007812 1.796875 -33.15625 L 1.796875 -33.59375 L 14.125 -35.390625 C 14.175781 -35.390625 14.210938 -35.390625 14.234375 -35.390625 C 14.253906 -35.390625 14.289062 -35.390625 14.34375 -35.390625 C 15.15625 -35.390625 15.5625 -34.984375 15.5625 -34.171875 L 15.5625 -3.96875 C 15.5625 -3.101562 15.847656 -2.332031 16.421875 -1.65625 C 17.003906 -0.988281 17.707031 -0.582031 18.53125 -0.4375 L 18.53125 0 L 1.796875 0 L 1.796875 -0.4375 C 2.617188 -0.582031 3.316406 -0.988281 3.890625 -1.65625 C 4.460938 -2.332031 4.75 -3.101562 4.75 -3.96875 Z M 15.78125 -44.828125 C 15.78125 -43.335938 15.226562 -42.039062 14.125 -40.9375 C 13.019531 -39.832031 11.695312 -39.28125 10.15625 -39.28125 C 8.625 -39.28125 7.316406 -39.832031 6.234375 -40.9375 C 5.148438 -42.039062 4.609375 -43.335938 4.609375 -44.828125 C 4.609375 -46.367188 5.148438 -47.691406 6.234375 -48.796875 C 7.316406 -49.898438 8.625 -50.453125 10.15625 -50.453125 C 11.695312 -50.453125 13.019531 -49.898438 14.125 -48.796875 C 15.226562 -47.691406 15.78125 -46.367188 15.78125 -44.828125 Z M 15.78125 -44.828125 "/></g></g></g><g fill="#5c00a4" fill-opacity="1"><g transform="translate(144.697601, 33.046847)"><g><path d="M 32.140625 -5.40625 C 32.140625 -4.539062 32.425781 -3.769531 33 -3.09375 C 33.582031 -2.425781 34.285156 -2.019531 35.109375 -1.875 L 35.109375 -1.4375 L 22.703125 0.359375 C 22.703125 0.359375 22.6875 0.359375 22.65625 0.359375 C 22.632812 0.359375 22.601562 0.359375 22.5625 0.359375 C 22.226562 0.359375 21.925781 0.226562 21.65625 -0.03125 C 21.394531 -0.300781 21.265625 -0.601562 21.265625 -0.9375 L 21.265625 -2.734375 C 20.398438 -2.109375 19.234375 -1.4375 17.765625 -0.71875 C 16.296875 0 14.554688 0.359375 12.546875 0.359375 C 10.285156 0.359375 8.238281 -0.238281 6.40625 -1.4375 C 4.582031 -2.644531 3.410156 -4.253906 2.890625 -6.265625 C 2.304688 -8.335938 2.519531 -10.359375 3.53125 -12.328125 C 4.539062 -14.296875 6.03125 -15.878906 8 -17.078125 C 9.25 -17.847656 10.832031 -18.582031 12.75 -19.28125 C 14.675781 -19.976562 16.695312 -20.675781 18.8125 -21.375 C 20.925781 -22.070312 22.90625 -22.789062 24.75 -23.53125 C 26.601562 -24.28125 28.117188 -25.097656 29.296875 -25.984375 C 30.472656 -26.867188 31.0625 -27.863281 31.0625 -28.96875 C 31.0625 -29.9375 30.640625 -30.898438 29.796875 -31.859375 C 28.960938 -32.816406 27.96875 -33.585938 26.8125 -34.171875 C 25.414062 -34.835938 23.875 -35.289062 22.1875 -35.53125 C 20.507812 -35.769531 18.785156 -35.75 17.015625 -35.46875 C 14.273438 -35.082031 12.90625 -34.164062 12.90625 -32.71875 C 12.90625 -31.851562 13.164062 -31.109375 13.6875 -30.484375 C 14.21875 -29.859375 14.734375 -29.195312 15.234375 -28.5 C 15.742188 -27.8125 16 -26.910156 16 -25.796875 C 16 -24.265625 15.445312 -22.957031 14.34375 -21.875 C 13.238281 -20.789062 11.914062 -20.25 10.375 -20.25 C 8.84375 -20.25 7.535156 -20.789062 6.453125 -21.875 C 5.367188 -22.957031 4.828125 -24.265625 4.828125 -25.796875 C 4.828125 -27.671875 5.472656 -29.316406 6.765625 -30.734375 C 8.066406 -32.160156 9.664062 -33.316406 11.5625 -34.203125 C 13.46875 -35.085938 15.257812 -35.648438 16.9375 -35.890625 C 20.78125 -36.472656 24.144531 -36.019531 27.03125 -34.53125 C 28.425781 -33.851562 29.625 -32.898438 30.625 -31.671875 C 31.632812 -30.453125 32.140625 -28.953125 32.140625 -27.171875 Z M 21.265625 -3.25 L 21.265625 -21.765625 C 20.304688 -21.335938 19.238281 -20.75 18.0625 -20 C 16.882812 -19.257812 15.859375 -18.25 14.984375 -16.96875 C 14.117188 -15.695312 13.617188 -14.050781 13.484375 -12.03125 C 13.378906 -10.300781 13.519531 -8.773438 13.90625 -7.453125 C 14.289062 -6.140625 14.867188 -5.070312 15.640625 -4.25 C 16.453125 -3.382812 17.398438 -2.851562 18.484375 -2.65625 C 19.566406 -2.46875 20.492188 -2.664062 21.265625 -3.25 Z M 21.265625 -3.25 "/></g></g></g><g fill="#5c00a4" fill-opacity="1"><g transform="translate(173.885032, 33.046847)"><g><path d="M 32.140625 -5.40625 C 32.140625 -4.539062 32.425781 -3.769531 33 -3.09375 C 33.582031 -2.425781 34.285156 -2.019531 35.109375 -1.875 L 35.109375 -1.4375 L 22.703125 0.359375 C 22.703125 0.359375 22.6875 0.359375 22.65625 0.359375 C 22.632812 0.359375 22.601562 0.359375 22.5625 0.359375 C 22.226562 0.359375 21.925781 0.226562 21.65625 -0.03125 C 21.394531 -0.300781 21.265625 -0.601562 21.265625 -0.9375 L 21.265625 -2.734375 C 20.398438 -2.109375 19.234375 -1.4375 17.765625 -0.71875 C 16.296875 0 14.554688 0.359375 12.546875 0.359375 C 10.285156 0.359375 8.238281 -0.238281 6.40625 -1.4375 C 4.582031 -2.644531 3.410156 -4.253906 2.890625 -6.265625 C 2.304688 -8.335938 2.519531 -10.359375 3.53125 -12.328125 C 4.539062 -14.296875 6.03125 -15.878906 8 -17.078125 C 9.25 -17.847656 10.832031 -18.582031 12.75 -19.28125 C 14.675781 -19.976562 16.695312 -20.675781 18.8125 -21.375 C 20.925781 -22.070312 22.90625 -22.789062 24.75 -23.53125 C 26.601562 -24.28125 28.117188 -25.097656 29.296875 -25.984375 C 30.472656 -26.867188 31.0625 -27.863281 31.0625 -28.96875 C 31.0625 -29.9375 30.640625 -30.898438 29.796875 -31.859375 C 28.960938 -32.816406 27.96875 -33.585938 26.8125 -34.171875 C 25.414062 -34.835938 23.875 -35.289062 22.1875 -35.53125 C 20.507812 -35.769531 18.785156 -35.75 17.015625 -35.46875 C 14.273438 -35.082031 12.90625 -34.164062 12.90625 -32.71875 C 12.90625 -31.851562 13.164062 -31.109375 13.6875 -30.484375 C 14.21875 -29.859375 14.734375 -29.195312 15.234375 -28.5 C 15.742188 -27.8125 16 -26.910156 16 -25.796875 C 16 -24.265625 15.445312 -22.957031 14.34375 -21.875 C 13.238281 -20.789062 11.914062 -20.25 10.375 -20.25 C 8.84375 -20.25 7.535156 -20.789062 6.453125 -21.875 C 5.367188 -22.957031 4.828125 -24.265625 4.828125 -25.796875 C 4.828125 -27.671875 5.472656 -29.316406 6.765625 -30.734375 C 8.066406 -32.160156 9.664062 -33.316406 11.5625 -34.203125 C 13.46875 -35.085938 15.257812 -35.648438 16.9375 -35.890625 C 20.78125 -36.472656 24.144531 -36.019531 27.03125 -34.53125 C 28.425781 -33.851562 29.625 -32.898438 30.625 -31.671875 C 31.632812 -30.453125 32.140625 -28.953125 32.140625 -27.171875 Z M 21.265625 -3.25 L 21.265625 -21.765625 C 20.304688 -21.335938 19.238281 -20.75 18.0625 -20 C 16.882812 -19.257812 15.859375 -18.25 14.984375 -16.96875 C 14.117188 -15.695312 13.617188 -14.050781 13.484375 -12.03125 C 13.378906 -10.300781 13.519531 -8.773438 13.90625 -7.453125 C 14.289062 -6.140625 14.867188 -5.070312 15.640625 -4.25 C 16.453125 -3.382812 17.398438 -2.851562 18.484375 -2.65625 C 19.566406 -2.46875 20.492188 -2.664062 21.265625 -3.25 Z M 21.265625 -3.25 "/></g></g></g></svg>