<svg xmlns="http://www.w3.org/2000/svg" xmlns:xlink="http://www.w3.org/1999/xlink" width="510" zoomAndPan="magnify" viewBox="0 0 382.5 127.500001" height="170" preserveAspectRatio="xMidYMid meet" version="1.0"><defs><g/><clipPath id="ca15c8db2c"><path d="M 116.992188 111.671875 L 126.207031 111.671875 L 126.207031 120.886719 L 116.992188 120.886719 Z M 116.992188 111.671875 " clip-rule="nonzero"/></clipPath><clipPath id="d8d2301e2f"><path d="M 121.601562 111.671875 C 119.054688 111.671875 116.992188 113.734375 116.992188 116.28125 C 116.992188 118.824219 119.054688 120.886719 121.601562 120.886719 C 124.144531 120.886719 126.207031 118.824219 126.207031 116.28125 C 126.207031 113.734375 124.144531 111.671875 121.601562 111.671875 Z M 121.601562 111.671875 " clip-rule="nonzero"/></clipPath><clipPath id="3e56f24149"><path d="M 238.582031 111.671875 L 247.796875 111.671875 L 247.796875 120.886719 L 238.582031 120.886719 Z M 238.582031 111.671875 " clip-rule="nonzero"/></clipPath><clipPath id="cfe8fc4857"><path d="M 243.191406 111.671875 C 240.644531 111.671875 238.582031 113.734375 238.582031 116.28125 C 238.582031 118.824219 240.644531 120.886719 243.191406 120.886719 C 245.734375 120.886719 247.796875 118.824219 247.796875 116.28125 C 247.796875 113.734375 245.734375 111.671875 243.191406 111.671875 Z M 243.191406 111.671875 " clip-rule="nonzero"/></clipPath><clipPath id="9d28686e9d"><path d="M 216.890625 9.800781 L 236.679688 9.800781 L 236.679688 29.589844 L 216.890625 29.589844 Z M 216.890625 9.800781 " clip-rule="nonzero"/></clipPath><clipPath id="fae939dafe"><path d="M 226.785156 9.800781 C 221.320312 9.800781 216.890625 14.230469 216.890625 19.695312 C 216.890625 25.160156 221.320312 29.589844 226.785156 29.589844 C 232.25 29.589844 236.679688 25.160156 236.679688 19.695312 C 236.679688 14.230469 232.25 9.800781 226.785156 9.800781 Z M 226.785156 9.800781 " clip-rule="nonzero"/></clipPath></defs><g fill="#000000" fill-opacity="1"><g transform="translate(244.966102, 90.220715)"><g><path d="M 28.21875 -54.546875 C 31.988281 -54.546875 35.507812 -53.835938 38.78125 -52.421875 C 42.0625 -51.003906 44.957031 -49.050781 47.46875 -46.5625 C 49.988281 -44.082031 51.957031 -41.191406 53.375 -37.890625 C 54.789062 -34.585938 55.5 -31.050781 55.5 -27.28125 L 55.5 0 L 32.84375 0 L 32.84375 -27.28125 C 32.84375 -28.53125 32.382812 -29.628906 31.46875 -30.578125 C 30.5625 -31.523438 29.476562 -32 28.21875 -32 C 26.894531 -32 25.773438 -31.523438 24.859375 -30.578125 C 23.953125 -29.628906 23.5 -28.53125 23.5 -27.28125 C 23.5 -26.019531 23.953125 -24.914062 24.859375 -23.96875 C 25.773438 -23.03125 26.894531 -22.5625 28.21875 -22.5625 L 31.515625 -22.5625 L 31.515625 0 L 28.21875 0 C 24.445312 0 20.90625 -0.707031 17.59375 -2.125 C 14.289062 -3.539062 11.394531 -5.503906 8.90625 -8.015625 C 6.425781 -10.535156 4.476562 -13.429688 3.0625 -16.703125 C 1.644531 -19.972656 0.9375 -23.5 0.9375 -27.28125 C 0.9375 -31.050781 1.644531 -34.585938 3.0625 -37.890625 C 4.476562 -41.191406 6.425781 -44.082031 8.90625 -46.5625 C 11.394531 -49.050781 14.289062 -51.003906 17.59375 -52.421875 C 20.90625 -53.835938 24.445312 -54.546875 28.21875 -54.546875 Z M 28.21875 -54.546875 "/></g></g></g><g fill="#000000" fill-opacity="1"><g transform="translate(301.305391, 90.220715)"><g><path d="M 28.21875 -54.546875 C 31.988281 -54.546875 35.507812 -53.835938 38.78125 -52.421875 C 42.0625 -51.003906 44.957031 -49.050781 47.46875 -46.5625 C 49.988281 -44.082031 51.957031 -41.191406 53.375 -37.890625 C 54.789062 -34.585938 55.5 -31.050781 55.5 -27.28125 L 55.5 0 L 32.84375 0 L 32.84375 -27.28125 C 32.84375 -28.53125 32.382812 -29.628906 31.46875 -30.578125 C 30.5625 -31.523438 29.476562 -32 28.21875 -32 C 26.894531 -32 25.773438 -31.523438 24.859375 -30.578125 C 23.953125 -29.628906 23.5 -28.53125 23.5 -27.28125 C 23.5 -26.019531 23.953125 -24.914062 24.859375 -23.96875 C 25.773438 -23.03125 26.894531 -22.5625 28.21875 -22.5625 L 31.515625 -22.5625 L 31.515625 0 L 28.21875 0 C 24.445312 0 20.90625 -0.707031 17.59375 -2.125 C 14.289062 -3.539062 11.394531 -5.503906 8.90625 -8.015625 C 6.425781 -10.535156 4.476562 -13.429688 3.0625 -16.703125 C 1.644531 -19.972656 0.9375 -23.5 0.9375 -27.28125 C 0.9375 -31.050781 1.644531 -34.585938 3.0625 -37.890625 C 4.476562 -41.191406 6.425781 -44.082031 8.90625 -46.5625 C 11.394531 -49.050781 14.289062 -51.003906 17.59375 -52.421875 C 20.90625 -53.835938 24.445312 -54.546875 28.21875 -54.546875 Z M 28.21875 -54.546875 "/></g></g></g><g fill="#000000" fill-opacity="1"><g transform="translate(302.902391, 38.938972)"><g><path d="M 5.859375 -4.640625 L 0.6875 -0.546875 L -5.453125 -8.296875 L -0.28125 -12.390625 L 0.75 -11.078125 L -2.953125 -8.140625 L -1.4375 -6.234375 L 1.875 -8.875 L 2.90625 -7.578125 L -0.40625 -4.9375 L 1.125 -3.015625 L 4.828125 -5.953125 Z M 5.859375 -4.640625 "/></g></g></g><g fill="#000000" fill-opacity="1"><g transform="translate(310.931057, 32.848206)"><g><path d="M 4.515625 -1.6875 C 4.078125 -1.5 3.609375 -1.363281 3.109375 -1.28125 C 2.609375 -1.207031 2.117188 -1.207031 1.640625 -1.28125 C 1.160156 -1.363281 0.707031 -1.550781 0.28125 -1.84375 C -0.144531 -2.132812 -0.507812 -2.566406 -0.8125 -3.140625 L 0.96875 -3.890625 C 1.238281 -3.503906 1.539062 -3.234375 1.875 -3.078125 C 2.21875 -2.929688 2.5625 -2.875 2.90625 -2.90625 C 3.25 -2.9375 3.578125 -3.019531 3.890625 -3.15625 C 4.359375 -3.351562 4.710938 -3.617188 4.953125 -3.953125 C 5.191406 -4.285156 5.222656 -4.664062 5.046875 -5.09375 C 4.910156 -5.425781 4.703125 -5.632812 4.421875 -5.71875 C 4.148438 -5.8125 3.828125 -5.835938 3.453125 -5.796875 C 3.078125 -5.753906 2.675781 -5.691406 2.25 -5.609375 C 1.832031 -5.535156 1.414062 -5.472656 1 -5.421875 C 0.582031 -5.367188 0.179688 -5.367188 -0.203125 -5.421875 C -0.597656 -5.472656 -0.953125 -5.613281 -1.265625 -5.84375 C -1.585938 -6.070312 -1.84375 -6.425781 -2.03125 -6.90625 C -2.28125 -7.5 -2.34375 -8.050781 -2.21875 -8.5625 C -2.101562 -9.082031 -1.84375 -9.539062 -1.4375 -9.9375 C -1.039062 -10.34375 -0.535156 -10.675781 0.078125 -10.9375 C 0.660156 -11.175781 1.253906 -11.300781 1.859375 -11.3125 C 2.472656 -11.332031 3.039062 -11.203125 3.5625 -10.921875 C 4.09375 -10.640625 4.546875 -10.191406 4.921875 -9.578125 L 3.171875 -8.84375 C 2.859375 -9.289062 2.472656 -9.550781 2.015625 -9.625 C 1.566406 -9.695312 1.109375 -9.632812 0.640625 -9.4375 C 0.210938 -9.257812 -0.101562 -9.023438 -0.3125 -8.734375 C -0.519531 -8.441406 -0.546875 -8.117188 -0.390625 -7.765625 C -0.273438 -7.484375 -0.0859375 -7.300781 0.171875 -7.21875 C 0.441406 -7.144531 0.753906 -7.128906 1.109375 -7.171875 C 1.460938 -7.210938 1.835938 -7.269531 2.234375 -7.34375 C 2.648438 -7.414062 3.078125 -7.472656 3.515625 -7.515625 C 3.960938 -7.566406 4.390625 -7.5625 4.796875 -7.5 C 5.203125 -7.4375 5.570312 -7.285156 5.90625 -7.046875 C 6.25 -6.816406 6.53125 -6.441406 6.75 -5.921875 C 7.101562 -5.066406 7.085938 -4.253906 6.703125 -3.484375 C 6.316406 -2.722656 5.585938 -2.125 4.515625 -1.6875 Z M 4.515625 -1.6875 "/></g></g></g><g fill="#000000" fill-opacity="1"><g transform="translate(321.234495, 28.914767)"><g><path d="M 4.984375 -0.59375 L 3.125 -0.375 L 2.140625 -8.53125 L -0.859375 -8.171875 L -1.046875 -9.828125 L 6.78125 -10.765625 L 6.96875 -9.109375 L 4 -8.75 Z M 4.984375 -0.59375 "/></g></g></g><g fill="#000000" fill-opacity="1"><g transform="translate(331.603331, 28.164554)"><g><path d="M 1.59375 0.28125 C 1.300781 0.257812 1.0625 0.140625 0.875 -0.078125 C 0.6875 -0.304688 0.601562 -0.566406 0.625 -0.859375 C 0.644531 -1.140625 0.769531 -1.367188 1 -1.546875 C 1.226562 -1.734375 1.488281 -1.816406 1.78125 -1.796875 C 2.050781 -1.773438 2.269531 -1.648438 2.4375 -1.421875 C 2.613281 -1.203125 2.691406 -0.953125 2.671875 -0.671875 C 2.648438 -0.378906 2.53125 -0.144531 2.3125 0.03125 C 2.101562 0.21875 1.863281 0.300781 1.59375 0.28125 Z M 1.59375 0.28125 "/></g></g></g><g fill="#000000" fill-opacity="1"><g transform="translate(337.182095, 28.825996)"><g/></g></g><g fill="#000000" fill-opacity="1"><g transform="translate(342.756253, 30.154503)"><g><path d="M 7 3.390625 L 0.640625 0.3125 L 1.25 -0.953125 L 5.25 -2.046875 C 6 -2.265625 6.609375 -2.503906 7.078125 -2.765625 C 7.546875 -3.035156 7.878906 -3.378906 8.078125 -3.796875 C 8.273438 -4.191406 8.328125 -4.566406 8.234375 -4.921875 C 8.148438 -5.285156 7.875 -5.582031 7.40625 -5.8125 C 6.925781 -6.039062 6.476562 -6.070312 6.0625 -5.90625 C 5.644531 -5.738281 5.269531 -5.347656 4.9375 -4.734375 L 3.375 -5.484375 C 3.925781 -6.523438 4.609375 -7.195312 5.421875 -7.5 C 6.234375 -7.800781 7.128906 -7.71875 8.109375 -7.25 C 8.671875 -6.96875 9.113281 -6.613281 9.4375 -6.1875 C 9.769531 -5.769531 9.960938 -5.304688 10.015625 -4.796875 C 10.078125 -4.285156 9.972656 -3.753906 9.703125 -3.203125 C 9.453125 -2.679688 9.109375 -2.25 8.671875 -1.90625 C 8.234375 -1.570312 7.757812 -1.296875 7.25 -1.078125 C 6.75 -0.867188 6.273438 -0.703125 5.828125 -0.578125 L 3.859375 0.015625 L 7.734375 1.890625 Z M 7 3.390625 "/></g></g></g><g fill="#000000" fill-opacity="1"><g transform="translate(352.020193, 34.925024)"><g><path d="M 3.140625 3.03125 C 2.585938 2.539062 2.222656 1.984375 2.046875 1.359375 C 1.878906 0.734375 1.929688 0.0390625 2.203125 -0.71875 C 2.484375 -1.476562 3.03125 -2.316406 3.84375 -3.234375 C 4.644531 -4.140625 5.398438 -4.773438 6.109375 -5.140625 C 6.828125 -5.503906 7.5 -5.632812 8.125 -5.53125 C 8.757812 -5.4375 9.351562 -5.148438 9.90625 -4.671875 C 10.457031 -4.171875 10.820312 -3.609375 11 -2.984375 C 11.175781 -2.367188 11.125 -1.679688 10.84375 -0.921875 C 10.5625 -0.160156 10.007812 0.675781 9.1875 1.59375 C 8.394531 2.488281 7.640625 3.125 6.921875 3.5 C 6.210938 3.875 5.546875 4.015625 4.921875 3.921875 C 4.296875 3.828125 3.703125 3.53125 3.140625 3.03125 Z M 4.21875 1.765625 C 4.476562 1.992188 4.773438 2.117188 5.109375 2.140625 C 5.441406 2.171875 5.828125 2.046875 6.265625 1.765625 C 6.710938 1.484375 7.234375 1.007812 7.828125 0.34375 C 8.410156 -0.320312 8.8125 -0.890625 9.03125 -1.359375 C 9.25 -1.835938 9.320312 -2.242188 9.25 -2.578125 C 9.1875 -2.910156 9.03125 -3.191406 8.78125 -3.421875 C 8.519531 -3.640625 8.222656 -3.757812 7.890625 -3.78125 C 7.566406 -3.800781 7.1875 -3.664062 6.75 -3.375 C 6.320312 -3.09375 5.816406 -2.625 5.234375 -1.96875 C 4.640625 -1.300781 4.226562 -0.726562 4 -0.25 C 3.769531 0.21875 3.6875 0.613281 3.75 0.9375 C 3.8125 1.257812 3.96875 1.535156 4.21875 1.765625 Z M 4.21875 1.765625 "/></g></g></g><g fill="#000000" fill-opacity="1"><g transform="translate(359.824219, 42.246357)"><g><path d="M 4.203125 6.546875 L 0.390625 0.609375 L 1.578125 -0.15625 L 5.53125 0.984375 C 6.289062 1.191406 6.941406 1.304688 7.484375 1.328125 C 8.023438 1.347656 8.488281 1.234375 8.875 0.984375 C 9.25 0.742188 9.488281 0.445312 9.59375 0.09375 C 9.707031 -0.257812 9.625 -0.65625 9.34375 -1.09375 C 9.050781 -1.539062 8.6875 -1.800781 8.25 -1.875 C 7.8125 -1.945312 7.285156 -1.804688 6.671875 -1.453125 L 5.734375 -2.90625 C 6.753906 -3.5 7.6875 -3.710938 8.53125 -3.546875 C 9.382812 -3.390625 10.101562 -2.851562 10.6875 -1.9375 C 11.03125 -1.40625 11.234375 -0.875 11.296875 -0.34375 C 11.359375 0.1875 11.28125 0.679688 11.0625 1.140625 C 10.84375 1.609375 10.472656 2.007812 9.953125 2.34375 C 9.472656 2.65625 8.953125 2.84375 8.390625 2.90625 C 7.835938 2.96875 7.289062 2.953125 6.75 2.859375 C 6.207031 2.773438 5.710938 2.675781 5.265625 2.5625 L 3.28125 2.015625 L 5.609375 5.640625 Z M 4.203125 6.546875 "/></g></g></g><g fill="#000000" fill-opacity="1"><g transform="translate(365.226809, 51.161999)"><g><path d="M 1.0625 4.09375 C 0.875 3.476562 0.820312 2.882812 0.90625 2.3125 C 1 1.75 1.222656 1.25 1.578125 0.8125 C 1.929688 0.382812 2.394531 0.046875 2.96875 -0.203125 L 3.515625 1.59375 C 3.097656 1.8125 2.820312 2.097656 2.6875 2.453125 C 2.550781 2.816406 2.546875 3.21875 2.671875 3.65625 C 2.828125 4.144531 3.117188 4.476562 3.546875 4.65625 C 3.972656 4.84375 4.453125 4.851562 4.984375 4.6875 C 5.503906 4.53125 5.878906 4.253906 6.109375 3.859375 C 6.347656 3.460938 6.394531 3.023438 6.25 2.546875 C 6.03125 1.835938 5.539062 1.414062 4.78125 1.28125 L 4.25 -0.453125 L 10 -1.125 L 11.609375 4.125 L 10.015625 4.625 L 8.796875 0.671875 L 6.65625 0.921875 C 6.925781 1.078125 7.171875 1.285156 7.390625 1.546875 C 7.609375 1.816406 7.765625 2.117188 7.859375 2.453125 C 8.046875 3.046875 8.070312 3.609375 7.9375 4.140625 C 7.8125 4.679688 7.546875 5.15625 7.140625 5.5625 C 6.734375 5.96875 6.203125 6.269531 5.546875 6.46875 C 4.867188 6.675781 4.226562 6.710938 3.625 6.578125 C 3.019531 6.453125 2.492188 6.175781 2.046875 5.75 C 1.597656 5.332031 1.269531 4.78125 1.0625 4.09375 Z M 1.0625 4.09375 "/></g></g></g><g fill="#000000" fill-opacity="1"><g transform="translate(7.978864, 89.326482)"><g><path d="M 57.125 0 L 33.25 0 L 33.25 -28.359375 C 33.25 -29.890625 32.863281 -31.035156 32.09375 -31.796875 C 31.332031 -32.566406 30.4375 -32.953125 29.40625 -32.953125 C 28.375 -32.953125 27.472656 -32.582031 26.703125 -31.84375 C 25.941406 -31.113281 25.5625 -29.984375 25.5625 -28.453125 L 25.5625 0 L 1 0 L 1 -29.453125 C 1 -34.710938 1.8125 -39.140625 3.4375 -42.734375 C 5.070312 -46.328125 7.269531 -49.222656 10.03125 -51.421875 C 12.800781 -53.617188 15.863281 -55.21875 19.21875 -56.21875 C 22.582031 -57.21875 25.992188 -57.71875 29.453125 -57.71875 C 32.253906 -57.71875 35.019531 -57.234375 37.75 -56.265625 C 40.476562 -55.304688 42.972656 -53.691406 45.234375 -51.421875 C 47.160156 -53.554688 49.539062 -55.125 52.375 -56.125 C 55.207031 -57.125 57.988281 -57.65625 60.71875 -57.71875 C 64.238281 -57.71875 67.695312 -57.203125 71.09375 -56.171875 C 74.488281 -55.140625 77.566406 -53.507812 80.328125 -51.28125 C 83.097656 -49.050781 85.3125 -46.132812 86.96875 -42.53125 C 88.632812 -38.9375 89.46875 -34.578125 89.46875 -29.453125 L 89.46875 0 L 64.90625 0 L 64.90625 -28.453125 C 64.90625 -29.984375 64.503906 -31.113281 63.703125 -31.84375 C 62.910156 -32.582031 62.015625 -32.953125 61.015625 -32.953125 C 60.015625 -32.953125 59.113281 -32.566406 58.3125 -31.796875 C 57.519531 -31.035156 57.125 -29.890625 57.125 -28.359375 Z M 57.125 0 "/></g></g></g><path stroke-linecap="butt" transform="matrix(0.726306, 0, 0, 0.726306, 189.322322, -2.618612)" fill="none" stroke-linejoin="miter" d="M 37.155532 57.425489 L 66.359405 57.425489 L 66.359405 123.997412 L 37.155532 123.997412 Z M 37.155532 57.425489 " stroke="#fff9f9" stroke-width="8.900025" stroke-opacity="1" stroke-miterlimit="4"/><g fill="#000000" fill-opacity="1"><g transform="translate(215.446628, 87.443286)"><g><path d="M 0.859375 -48.34375 L 22.0625 -48.34375 L 22.0625 0 L 0.859375 0 Z M 0.859375 -48.34375 "/></g></g></g><g fill="#000000" fill-opacity="1"><g transform="translate(96.185881, 90.273243)"><g><path d="M 28.21875 -54.546875 C 31.988281 -54.546875 35.507812 -53.835938 38.78125 -52.421875 C 42.0625 -51.003906 44.957031 -49.050781 47.46875 -46.5625 C 49.988281 -44.082031 51.957031 -41.191406 53.375 -37.890625 C 54.789062 -34.585938 55.5 -31.050781 55.5 -27.28125 L 55.5 0 L 32.84375 0 L 32.84375 -27.28125 C 32.84375 -28.53125 32.382812 -29.628906 31.46875 -30.578125 C 30.5625 -31.523438 29.476562 -32 28.21875 -32 C 26.894531 -32 25.773438 -31.523438 24.859375 -30.578125 C 23.953125 -29.628906 23.5 -28.53125 23.5 -27.28125 C 23.5 -26.019531 23.953125 -24.914062 24.859375 -23.96875 C 25.773438 -23.03125 26.894531 -22.5625 28.21875 -22.5625 L 31.515625 -22.5625 L 31.515625 0 L 28.21875 0 C 24.445312 0 20.90625 -0.707031 17.59375 -2.125 C 14.289062 -3.539062 11.394531 -5.503906 8.90625 -8.015625 C 6.425781 -10.535156 4.476562 -13.429688 3.0625 -16.703125 C 1.644531 -19.972656 0.9375 -23.5 0.9375 -27.28125 C 0.9375 -31.050781 1.644531 -34.585938 3.0625 -37.890625 C 4.476562 -41.191406 6.425781 -44.082031 8.90625 -46.5625 C 11.394531 -49.050781 14.289062 -51.003906 17.59375 -52.421875 C 20.90625 -53.835938 24.445312 -54.546875 28.21875 -54.546875 Z M 28.21875 -54.546875 "/></g></g></g><g fill="#000000" fill-opacity="1"><g transform="translate(152.525169, 90.273243)"><g><path d="M 28.21875 -54.546875 C 31.988281 -54.546875 35.507812 -53.835938 38.78125 -52.421875 C 42.0625 -51.003906 44.957031 -49.050781 47.46875 -46.5625 C 49.988281 -44.082031 51.957031 -41.191406 53.375 -37.890625 C 54.789062 -34.585938 55.5 -31.050781 55.5 -27.28125 L 55.5 0 L 32.84375 0 L 32.84375 -27.28125 C 32.84375 -28.53125 32.382812 -29.628906 31.46875 -30.578125 C 30.5625 -31.523438 29.476562 -32 28.21875 -32 C 26.894531 -32 25.773438 -31.523438 24.859375 -30.578125 C 23.953125 -29.628906 23.5 -28.53125 23.5 -27.28125 C 23.5 -26.019531 23.953125 -24.914062 24.859375 -23.96875 C 25.773438 -23.03125 26.894531 -22.5625 28.21875 -22.5625 L 31.515625 -22.5625 L 31.515625 0 L 28.21875 0 C 24.445312 0 20.90625 -0.707031 17.59375 -2.125 C 14.289062 -3.539062 11.394531 -5.503906 8.90625 -8.015625 C 6.425781 -10.535156 4.476562 -13.429688 3.0625 -16.703125 C 1.644531 -19.972656 0.9375 -23.5 0.9375 -27.28125 C 0.9375 -31.050781 1.644531 -34.585938 3.0625 -37.890625 C 4.476562 -41.191406 6.425781 -44.082031 8.90625 -46.5625 C 11.394531 -49.050781 14.289062 -51.003906 17.59375 -52.421875 C 20.90625 -53.835938 24.445312 -54.546875 28.21875 -54.546875 Z M 28.21875 -54.546875 "/></g></g></g><g fill="#000000" fill-opacity="1"><g transform="translate(5.671396, 122.689069)"><g><path d="M 6.59375 -12.78125 C 7.507812 -12.78125 8.289062 -12.613281 8.9375 -12.28125 C 9.59375 -11.945312 10.085938 -11.476562 10.421875 -10.875 C 10.753906 -10.269531 10.921875 -9.566406 10.921875 -8.765625 C 10.921875 -7.972656 10.753906 -7.273438 10.421875 -6.671875 C 10.085938 -6.066406 9.59375 -5.597656 8.9375 -5.265625 C 8.289062 -4.929688 7.507812 -4.765625 6.59375 -4.765625 L 4.1875 -4.765625 L 4.1875 0 L 1.65625 0 L 1.65625 -12.78125 Z M 6.265625 -6.765625 C 7.671875 -6.765625 8.375 -7.429688 8.375 -8.765625 C 8.375 -10.109375 7.671875 -10.78125 6.265625 -10.78125 L 4.1875 -10.78125 L 4.1875 -6.765625 Z M 6.265625 -6.765625 "/></g></g></g><g fill="#000000" fill-opacity="1"><g transform="translate(17.34796, 122.689069)"><g><path d="M 1.65625 0 L 1.65625 -12.78125 L 6.796875 -12.78125 C 8.117188 -12.78125 9.113281 -12.472656 9.78125 -11.859375 C 10.457031 -11.253906 10.796875 -10.414062 10.796875 -9.34375 C 10.796875 -8.570312 10.597656 -7.9375 10.203125 -7.4375 C 9.816406 -6.945312 9.234375 -6.566406 8.453125 -6.296875 L 8.453125 -6.125 C 8.847656 -5.945312 9.171875 -5.6875 9.421875 -5.34375 C 9.671875 -5 9.90625 -4.488281 10.125 -3.8125 L 11.40625 0 L 8.796875 0 L 7.546875 -3.828125 C 7.421875 -4.203125 7.273438 -4.492188 7.109375 -4.703125 C 6.953125 -4.921875 6.75 -5.078125 6.5 -5.171875 C 6.257812 -5.273438 5.941406 -5.328125 5.546875 -5.328125 L 4.1875 -5.328125 L 4.1875 0 Z M 6.484375 -7.328125 C 7.710938 -7.328125 8.328125 -7.898438 8.328125 -9.046875 C 8.328125 -10.203125 7.710938 -10.78125 6.484375 -10.78125 L 4.1875 -10.78125 L 4.1875 -7.328125 Z M 6.484375 -7.328125 "/></g></g></g><g fill="#000000" fill-opacity="1"><g transform="translate(29.295467, 122.689069)"><g><path d="M 6.96875 0.1875 C 5.800781 0.1875 4.769531 -0.0507812 3.875 -0.53125 C 2.976562 -1.007812 2.273438 -1.738281 1.765625 -2.71875 C 1.253906 -3.707031 1 -4.929688 1 -6.390625 C 1 -7.847656 1.253906 -9.066406 1.765625 -10.046875 C 2.273438 -11.035156 2.976562 -11.769531 3.875 -12.25 C 4.769531 -12.726562 5.800781 -12.96875 6.96875 -12.96875 C 8.132812 -12.96875 9.164062 -12.726562 10.0625 -12.25 C 10.957031 -11.78125 11.65625 -11.050781 12.15625 -10.0625 C 12.65625 -9.070312 12.90625 -7.847656 12.90625 -6.390625 C 12.90625 -4.929688 12.65625 -3.707031 12.15625 -2.71875 C 11.65625 -1.726562 10.957031 -0.992188 10.0625 -0.515625 C 9.164062 -0.046875 8.132812 0.1875 6.96875 0.1875 Z M 6.96875 -2.015625 C 8.050781 -2.015625 8.878906 -2.359375 9.453125 -3.046875 C 10.023438 -3.742188 10.3125 -4.859375 10.3125 -6.390625 C 10.3125 -7.921875 10.023438 -9.035156 9.453125 -9.734375 C 8.878906 -10.429688 8.050781 -10.78125 6.96875 -10.78125 C 5.875 -10.78125 5.039062 -10.429688 4.46875 -9.734375 C 3.894531 -9.035156 3.609375 -7.921875 3.609375 -6.390625 C 3.609375 -4.859375 3.894531 -3.742188 4.46875 -3.046875 C 5.039062 -2.359375 5.875 -2.015625 6.96875 -2.015625 Z M 6.96875 -2.015625 "/></g></g></g><g fill="#000000" fill-opacity="1"><g transform="translate(43.218201, 122.689069)"><g><path d="M 6.59375 -12.78125 C 7.507812 -12.78125 8.289062 -12.613281 8.9375 -12.28125 C 9.59375 -11.945312 10.085938 -11.476562 10.421875 -10.875 C 10.753906 -10.269531 10.921875 -9.566406 10.921875 -8.765625 C 10.921875 -7.972656 10.753906 -7.273438 10.421875 -6.671875 C 10.085938 -6.066406 9.59375 -5.597656 8.9375 -5.265625 C 8.289062 -4.929688 7.507812 -4.765625 6.59375 -4.765625 L 4.1875 -4.765625 L 4.1875 0 L 1.65625 0 L 1.65625 -12.78125 Z M 6.265625 -6.765625 C 7.671875 -6.765625 8.375 -7.429688 8.375 -8.765625 C 8.375 -10.109375 7.671875 -10.78125 6.265625 -10.78125 L 4.1875 -10.78125 L 4.1875 -6.765625 Z M 6.265625 -6.765625 "/></g></g></g><g fill="#000000" fill-opacity="1"><g transform="translate(54.894765, 122.689069)"><g><path d="M 4.1875 -5.609375 L 4.1875 -2.109375 L 10.296875 -2.109375 L 10.296875 0 L 1.65625 0 L 1.65625 -12.78125 L 10.15625 -12.78125 L 10.15625 -10.671875 L 4.1875 -10.671875 L 4.1875 -7.671875 L 9.40625 -7.671875 L 9.40625 -5.609375 Z M 4.1875 -5.609375 "/></g></g></g><g fill="#000000" fill-opacity="1"><g transform="translate(65.880878, 122.689069)"><g><path d="M 1.65625 0 L 1.65625 -12.78125 L 6.796875 -12.78125 C 8.117188 -12.78125 9.113281 -12.472656 9.78125 -11.859375 C 10.457031 -11.253906 10.796875 -10.414062 10.796875 -9.34375 C 10.796875 -8.570312 10.597656 -7.9375 10.203125 -7.4375 C 9.816406 -6.945312 9.234375 -6.566406 8.453125 -6.296875 L 8.453125 -6.125 C 8.847656 -5.945312 9.171875 -5.6875 9.421875 -5.34375 C 9.671875 -5 9.90625 -4.488281 10.125 -3.8125 L 11.40625 0 L 8.796875 0 L 7.546875 -3.828125 C 7.421875 -4.203125 7.273438 -4.492188 7.109375 -4.703125 C 6.953125 -4.921875 6.75 -5.078125 6.5 -5.171875 C 6.257812 -5.273438 5.941406 -5.328125 5.546875 -5.328125 L 4.1875 -5.328125 L 4.1875 0 Z M 6.484375 -7.328125 C 7.710938 -7.328125 8.328125 -7.898438 8.328125 -9.046875 C 8.328125 -10.203125 7.710938 -10.78125 6.484375 -10.78125 L 4.1875 -10.78125 L 4.1875 -7.328125 Z M 6.484375 -7.328125 "/></g></g></g><g fill="#000000" fill-opacity="1"><g transform="translate(77.828385, 122.689069)"><g><path d="M 10.25 -12.78125 L 10.25 -10.65625 L 6.5625 -10.65625 L 6.5625 0 L 4.046875 0 L 4.046875 -10.65625 L 0.34375 -10.65625 L 0.34375 -12.78125 Z M 10.25 -12.78125 "/></g></g></g><g fill="#000000" fill-opacity="1"><g transform="translate(88.421196, 122.689069)"><g><path d="M 7 0 L 4.484375 0 L 4.484375 -5.015625 L 0.0625 -12.78125 L 2.765625 -12.78125 L 5.6875 -7.75 L 5.90625 -7.75 L 8.765625 -12.78125 L 11.421875 -12.78125 L 7 -5.015625 Z M 7 0 "/></g></g></g><g fill="#000000" fill-opacity="1"><g transform="translate(145.674026, 122.689069)"><g><path d="M 6.984375 0.1875 C 5.804688 0.1875 4.769531 -0.0546875 3.875 -0.546875 C 2.976562 -1.035156 2.273438 -1.769531 1.765625 -2.75 C 1.253906 -3.738281 1 -4.953125 1 -6.390625 C 1 -7.828125 1.253906 -9.035156 1.765625 -10.015625 C 2.273438 -11.003906 2.976562 -11.742188 3.875 -12.234375 C 4.769531 -12.722656 5.804688 -12.96875 6.984375 -12.96875 C 8.210938 -12.96875 9.253906 -12.726562 10.109375 -12.25 C 10.972656 -11.769531 11.585938 -11.035156 11.953125 -10.046875 L 10.109375 -8.921875 L 9.890625 -8.921875 C 9.617188 -9.585938 9.25 -10.066406 8.78125 -10.359375 C 8.3125 -10.648438 7.710938 -10.796875 6.984375 -10.796875 C 5.921875 -10.796875 5.09375 -10.441406 4.5 -9.734375 C 3.90625 -9.035156 3.609375 -7.921875 3.609375 -6.390625 C 3.609375 -4.867188 3.90625 -3.753906 4.5 -3.046875 C 5.09375 -2.347656 5.921875 -2 6.984375 -2 C 8.648438 -2 9.664062 -2.804688 10.03125 -4.421875 L 10.25 -4.421875 L 12.125 -3.453125 C 11.769531 -2.242188 11.171875 -1.332031 10.328125 -0.71875 C 9.484375 -0.113281 8.367188 0.1875 6.984375 0.1875 Z M 6.984375 0.1875 "/></g></g></g><g fill="#000000" fill-opacity="1"><g transform="translate(158.207105, 122.689069)"><g><path d="M 6.78125 0.1875 C 5.019531 0.1875 3.710938 -0.226562 2.859375 -1.0625 C 2.003906 -1.90625 1.578125 -3.148438 1.578125 -4.796875 L 1.578125 -12.78125 L 4.0625 -12.78125 L 4.0625 -4.8125 C 4.0625 -3.875 4.285156 -3.171875 4.734375 -2.703125 C 5.179688 -2.242188 5.863281 -2.015625 6.78125 -2.015625 C 8.59375 -2.015625 9.5 -2.945312 9.5 -4.8125 L 9.5 -12.78125 L 11.96875 -12.78125 L 11.96875 -4.796875 C 11.96875 -3.148438 11.539062 -1.90625 10.6875 -1.0625 C 9.84375 -0.226562 8.539062 0.1875 6.78125 0.1875 Z M 6.78125 0.1875 "/></g></g></g><g fill="#000000" fill-opacity="1"><g transform="translate(171.754017, 122.689069)"><g><path d="M 4.1875 0 L 1.65625 0 L 1.65625 -12.78125 L 4.1875 -12.78125 Z M 4.1875 0 "/></g></g></g><g fill="#000000" fill-opacity="1"><g transform="translate(177.609779, 122.689069)"><g><path d="M 5.671875 0.1875 C 4.785156 0.1875 3.992188 0.078125 3.296875 -0.140625 C 2.609375 -0.359375 2.035156 -0.644531 1.578125 -1 C 1.117188 -1.351562 0.765625 -1.742188 0.515625 -2.171875 L 1.90625 -3.875 L 2.125 -3.875 C 2.507812 -3.300781 3 -2.84375 3.59375 -2.5 C 4.1875 -2.164062 4.878906 -2 5.671875 -2 C 6.347656 -2 6.859375 -2.140625 7.203125 -2.421875 C 7.546875 -2.710938 7.71875 -3.109375 7.71875 -3.609375 C 7.71875 -3.910156 7.660156 -4.160156 7.546875 -4.359375 C 7.429688 -4.566406 7.242188 -4.742188 6.984375 -4.890625 C 6.734375 -5.035156 6.390625 -5.160156 5.953125 -5.265625 L 4.3125 -5.640625 C 3.164062 -5.910156 2.3125 -6.347656 1.75 -6.953125 C 1.1875 -7.566406 0.90625 -8.359375 0.90625 -9.328125 C 0.90625 -10.046875 1.082031 -10.679688 1.4375 -11.234375 C 1.800781 -11.785156 2.328125 -12.210938 3.015625 -12.515625 C 3.710938 -12.816406 4.539062 -12.96875 5.5 -12.96875 C 6.488281 -12.96875 7.332031 -12.835938 8.03125 -12.578125 C 8.726562 -12.316406 9.320312 -11.921875 9.8125 -11.390625 L 8.5625 -9.671875 L 8.34375 -9.671875 C 7.976562 -10.046875 7.5625 -10.328125 7.09375 -10.515625 C 6.632812 -10.710938 6.101562 -10.8125 5.5 -10.8125 C 4.800781 -10.8125 4.269531 -10.6875 3.90625 -10.4375 C 3.550781 -10.195312 3.375 -9.859375 3.375 -9.421875 C 3.375 -9.023438 3.5 -8.707031 3.75 -8.46875 C 4.007812 -8.226562 4.453125 -8.039062 5.078125 -7.90625 L 6.75 -7.546875 C 7.988281 -7.285156 8.890625 -6.84375 9.453125 -6.21875 C 10.015625 -5.59375 10.296875 -4.773438 10.296875 -3.765625 C 10.296875 -2.972656 10.125 -2.28125 9.78125 -1.6875 C 9.4375 -1.09375 8.914062 -0.628906 8.21875 -0.296875 C 7.519531 0.0234375 6.671875 0.1875 5.671875 0.1875 Z M 5.671875 0.1875 "/></g></g></g><g fill="#000000" fill-opacity="1"><g transform="translate(188.587147, 122.689069)"><g><path d="M 4.1875 0 L 1.65625 0 L 1.65625 -12.78125 L 4.1875 -12.78125 Z M 4.1875 0 "/></g></g></g><g fill="#000000" fill-opacity="1"><g transform="translate(194.442909, 122.689069)"><g><path d="M 4.109375 0 L 1.65625 0 L 1.65625 -12.78125 L 4.5625 -12.78125 L 9.6875 -4.546875 L 9.921875 -4.578125 L 9.921875 -12.78125 L 12.34375 -12.78125 L 12.34375 0 L 9.75 0 L 4.328125 -8.796875 L 4.109375 -8.765625 Z M 4.109375 0 "/></g></g></g><g fill="#000000" fill-opacity="1"><g transform="translate(208.453042, 122.689069)"><g><path d="M 4.1875 -5.609375 L 4.1875 -2.109375 L 10.296875 -2.109375 L 10.296875 0 L 1.65625 0 L 1.65625 -12.78125 L 10.15625 -12.78125 L 10.15625 -10.671875 L 4.1875 -10.671875 L 4.1875 -7.671875 L 9.40625 -7.671875 L 9.40625 -5.609375 Z M 4.1875 -5.609375 "/></g></g></g><g fill="#000000" fill-opacity="1"><g transform="translate(266.579505, 122.689069)"><g><path d="M 4.1875 -12.78125 L 4.1875 -2.109375 L 9.9375 -2.109375 L 9.9375 0 L 1.65625 0 L 1.65625 -12.78125 Z M 4.1875 -12.78125 "/></g></g></g><g fill="#000000" fill-opacity="1"><g transform="translate(276.927597, 122.689069)"><g><path d="M 4.1875 0 L 1.65625 0 L 1.65625 -12.78125 L 4.1875 -12.78125 Z M 4.1875 0 "/></g></g></g><g fill="#000000" fill-opacity="1"><g transform="translate(282.783359, 122.689069)"><g><path d="M 9.765625 -12.78125 L 9.765625 -10.671875 L 4.1875 -10.671875 L 4.1875 -7.28125 L 9.25 -7.28125 L 9.25 -5.1875 L 4.1875 -5.1875 L 4.1875 0 L 1.65625 0 L 1.65625 -12.78125 Z M 9.765625 -12.78125 "/></g></g></g><g fill="#000000" fill-opacity="1"><g transform="translate(293.113972, 122.689069)"><g><path d="M 4.1875 -5.609375 L 4.1875 -2.109375 L 10.296875 -2.109375 L 10.296875 0 L 1.65625 0 L 1.65625 -12.78125 L 10.15625 -12.78125 L 10.15625 -10.671875 L 4.1875 -10.671875 L 4.1875 -7.671875 L 9.40625 -7.671875 L 9.40625 -5.609375 Z M 4.1875 -5.609375 "/></g></g></g><g fill="#000000" fill-opacity="1"><g transform="translate(304.100085, 122.689069)"><g><path d="M 5.671875 0.1875 C 4.785156 0.1875 3.992188 0.078125 3.296875 -0.140625 C 2.609375 -0.359375 2.035156 -0.644531 1.578125 -1 C 1.117188 -1.351562 0.765625 -1.742188 0.515625 -2.171875 L 1.90625 -3.875 L 2.125 -3.875 C 2.507812 -3.300781 3 -2.84375 3.59375 -2.5 C 4.1875 -2.164062 4.878906 -2 5.671875 -2 C 6.347656 -2 6.859375 -2.140625 7.203125 -2.421875 C 7.546875 -2.710938 7.71875 -3.109375 7.71875 -3.609375 C 7.71875 -3.910156 7.660156 -4.160156 7.546875 -4.359375 C 7.429688 -4.566406 7.242188 -4.742188 6.984375 -4.890625 C 6.734375 -5.035156 6.390625 -5.160156 5.953125 -5.265625 L 4.3125 -5.640625 C 3.164062 -5.910156 2.3125 -6.347656 1.75 -6.953125 C 1.1875 -7.566406 0.90625 -8.359375 0.90625 -9.328125 C 0.90625 -10.046875 1.082031 -10.679688 1.4375 -11.234375 C 1.800781 -11.785156 2.328125 -12.210938 3.015625 -12.515625 C 3.710938 -12.816406 4.539062 -12.96875 5.5 -12.96875 C 6.488281 -12.96875 7.332031 -12.835938 8.03125 -12.578125 C 8.726562 -12.316406 9.320312 -11.921875 9.8125 -11.390625 L 8.5625 -9.671875 L 8.34375 -9.671875 C 7.976562 -10.046875 7.5625 -10.328125 7.09375 -10.515625 C 6.632812 -10.710938 6.101562 -10.8125 5.5 -10.8125 C 4.800781 -10.8125 4.269531 -10.6875 3.90625 -10.4375 C 3.550781 -10.195312 3.375 -9.859375 3.375 -9.421875 C 3.375 -9.023438 3.5 -8.707031 3.75 -8.46875 C 4.007812 -8.226562 4.453125 -8.039062 5.078125 -7.90625 L 6.75 -7.546875 C 7.988281 -7.285156 8.890625 -6.84375 9.453125 -6.21875 C 10.015625 -5.59375 10.296875 -4.773438 10.296875 -3.765625 C 10.296875 -2.972656 10.125 -2.28125 9.78125 -1.6875 C 9.4375 -1.09375 8.914062 -0.628906 8.21875 -0.296875 C 7.519531 0.0234375 6.671875 0.1875 5.671875 0.1875 Z M 5.671875 0.1875 "/></g></g></g><g fill="#000000" fill-opacity="1"><g transform="translate(315.077454, 122.689069)"><g><path d="M 10.25 -12.78125 L 10.25 -10.65625 L 6.5625 -10.65625 L 6.5625 0 L 4.046875 0 L 4.046875 -10.65625 L 0.34375 -10.65625 L 0.34375 -12.78125 Z M 10.25 -12.78125 "/></g></g></g><g fill="#000000" fill-opacity="1"><g transform="translate(325.670265, 122.689069)"><g><path d="M 7 0 L 4.484375 0 L 4.484375 -5.015625 L 0.0625 -12.78125 L 2.765625 -12.78125 L 5.6875 -7.75 L 5.90625 -7.75 L 8.765625 -12.78125 L 11.421875 -12.78125 L 7 -5.015625 Z M 7 0 "/></g></g></g><g fill="#000000" fill-opacity="1"><g transform="translate(337.145815, 122.689069)"><g><path d="M 4.1875 -12.78125 L 4.1875 -2.109375 L 9.9375 -2.109375 L 9.9375 0 L 1.65625 0 L 1.65625 -12.78125 Z M 4.1875 -12.78125 "/></g></g></g><g fill="#000000" fill-opacity="1"><g transform="translate(347.493908, 122.689069)"><g><path d="M 4.1875 -5.609375 L 4.1875 -2.109375 L 10.296875 -2.109375 L 10.296875 0 L 1.65625 0 L 1.65625 -12.78125 L 10.15625 -12.78125 L 10.15625 -10.671875 L 4.1875 -10.671875 L 4.1875 -7.671875 L 9.40625 -7.671875 L 9.40625 -5.609375 Z M 4.1875 -5.609375 "/></g></g></g><g clip-path="url(#ca15c8db2c)"><g clip-path="url(#d8d2301e2f)"><path fill="#000000" d="M 116.992188 111.671875 L 126.207031 111.671875 L 126.207031 120.886719 L 116.992188 120.886719 Z M 116.992188 111.671875 " fill-opacity="1" fill-rule="nonzero"/></g></g><g clip-path="url(#3e56f24149)"><g clip-path="url(#cfe8fc4857)"><path fill="#000000" d="M 238.582031 111.671875 L 247.796875 111.671875 L 247.796875 120.886719 L 238.582031 120.886719 Z M 238.582031 111.671875 " fill-opacity="1" fill-rule="nonzero"/></g></g><g clip-path="url(#9d28686e9d)"><g clip-path="url(#fae939dafe)"><path fill="#000000" d="M 216.890625 9.800781 L 236.679688 9.800781 L 236.679688 29.589844 L 216.890625 29.589844 Z M 216.890625 9.800781 " fill-opacity="1" fill-rule="nonzero"/></g></g></svg>