<svg xmlns="http://www.w3.org/2000/svg" xmlns:xlink="http://www.w3.org/1999/xlink" width="510" zoomAndPan="magnify" viewBox="0 0 382.5 127.500001" height="170" preserveAspectRatio="xMidYMid meet" version="1.0"><defs><g/><clipPath id="bf2a2061df"><path d="M 119.195312 107.828125 L 128.398438 107.828125 L 128.398438 117.03125 L 119.195312 117.03125 Z M 119.195312 107.828125 " clip-rule="nonzero"/></clipPath><clipPath id="1cca17485d"><path d="M 123.796875 107.828125 C 121.253906 107.828125 119.195312 109.886719 119.195312 112.429688 C 119.195312 114.96875 121.253906 117.03125 123.796875 117.03125 C 126.339844 117.03125 128.398438 114.96875 128.398438 112.429688 C 128.398438 109.886719 126.339844 107.828125 123.796875 107.828125 Z M 123.796875 107.828125 " clip-rule="nonzero"/></clipPath><clipPath id="cdf15dcfd9"><path d="M 240.636719 107.828125 L 249.835938 107.828125 L 249.835938 117.03125 L 240.636719 117.03125 Z M 240.636719 107.828125 " clip-rule="nonzero"/></clipPath><clipPath id="de873dd5d4"><path d="M 245.234375 107.828125 C 242.695312 107.828125 240.636719 109.886719 240.636719 112.429688 C 240.636719 114.96875 242.695312 117.03125 245.234375 117.03125 C 247.777344 117.03125 249.835938 114.96875 249.835938 112.429688 C 249.835938 109.886719 247.777344 107.828125 245.234375 107.828125 Z M 245.234375 107.828125 " clip-rule="nonzero"/></clipPath><clipPath id="e0a3b05cf8"><path d="M 218.96875 6.082031 L 238.734375 6.082031 L 238.734375 25.847656 L 218.96875 25.847656 Z M 218.96875 6.082031 " clip-rule="nonzero"/></clipPath><clipPath id="d1eeebb2e0"><path d="M 228.851562 6.082031 C 223.390625 6.082031 218.96875 10.507812 218.96875 15.964844 C 218.96875 21.421875 223.390625 25.847656 228.851562 25.847656 C 234.308594 25.847656 238.734375 21.421875 238.734375 15.964844 C 238.734375 10.507812 234.308594 6.082031 228.851562 6.082031 Z M 228.851562 6.082031 " clip-rule="nonzero"/></clipPath></defs><g fill="#fff9f9" fill-opacity="1"><g transform="translate(247.009487, 86.40063)"><g><path d="M 28.1875 -54.46875 C 31.945312 -54.46875 35.460938 -53.757812 38.734375 -52.34375 C 42.003906 -50.9375 44.894531 -48.992188 47.40625 -46.515625 C 49.914062 -44.035156 51.878906 -41.144531 53.296875 -37.84375 C 54.710938 -34.539062 55.421875 -31.003906 55.421875 -27.234375 L 55.421875 0 L 32.796875 0 L 32.796875 -27.234375 C 32.796875 -28.492188 32.335938 -29.59375 31.421875 -30.53125 C 30.515625 -31.476562 29.4375 -31.953125 28.1875 -31.953125 C 26.863281 -31.953125 25.742188 -31.476562 24.828125 -30.53125 C 23.921875 -29.59375 23.46875 -28.492188 23.46875 -27.234375 C 23.46875 -25.984375 23.921875 -24.882812 24.828125 -23.9375 C 25.742188 -23 26.863281 -22.53125 28.1875 -22.53125 L 31.484375 -22.53125 L 31.484375 0 L 28.1875 0 C 24.414062 0 20.878906 -0.703125 17.578125 -2.109375 C 14.273438 -3.523438 11.382812 -5.488281 8.90625 -8 C 6.425781 -10.519531 4.476562 -13.410156 3.0625 -16.671875 C 1.644531 -19.941406 0.9375 -23.460938 0.9375 -27.234375 C 0.9375 -31.003906 1.644531 -34.539062 3.0625 -37.84375 C 4.476562 -41.144531 6.425781 -44.035156 8.90625 -46.515625 C 11.382812 -48.992188 14.273438 -50.9375 17.578125 -52.34375 C 20.878906 -53.757812 24.414062 -54.46875 28.1875 -54.46875 Z M 28.1875 -54.46875 "/></g></g></g><g fill="#fff9f9" fill-opacity="1"><g transform="translate(303.278708, 86.40063)"><g><path d="M 28.1875 -54.46875 C 31.945312 -54.46875 35.460938 -53.757812 38.734375 -52.34375 C 42.003906 -50.9375 44.894531 -48.992188 47.40625 -46.515625 C 49.914062 -44.035156 51.878906 -41.144531 53.296875 -37.84375 C 54.710938 -34.539062 55.421875 -31.003906 55.421875 -27.234375 L 55.421875 0 L 32.796875 0 L 32.796875 -27.234375 C 32.796875 -28.492188 32.335938 -29.59375 31.421875 -30.53125 C 30.515625 -31.476562 29.4375 -31.953125 28.1875 -31.953125 C 26.863281 -31.953125 25.742188 -31.476562 24.828125 -30.53125 C 23.921875 -29.59375 23.46875 -28.492188 23.46875 -27.234375 C 23.46875 -25.984375 23.921875 -24.882812 24.828125 -23.9375 C 25.742188 -23 26.863281 -22.53125 28.1875 -22.53125 L 31.484375 -22.53125 L 31.484375 0 L 28.1875 0 C 24.414062 0 20.878906 -0.703125 17.578125 -2.109375 C 14.273438 -3.523438 11.382812 -5.488281 8.90625 -8 C 6.425781 -10.519531 4.476562 -13.410156 3.0625 -16.671875 C 1.644531 -19.941406 0.9375 -23.460938 0.9375 -27.234375 C 0.9375 -31.003906 1.644531 -34.539062 3.0625 -37.84375 C 4.476562 -41.144531 6.425781 -44.035156 8.90625 -46.515625 C 11.382812 -48.992188 14.273438 -50.9375 17.578125 -52.34375 C 20.878906 -53.757812 24.414062 -54.46875 28.1875 -54.46875 Z M 28.1875 -54.46875 "/></g></g></g><g fill="#fff9f9" fill-opacity="1"><g transform="translate(305.253333, 35.820853)"><g><path d="M 5.859375 -4.640625 L 0.6875 -0.546875 L -5.4375 -8.28125 L -0.265625 -12.375 L 0.765625 -11.0625 L -2.9375 -8.125 L -1.421875 -6.21875 L 1.890625 -8.84375 L 2.921875 -7.546875 L -0.390625 -4.921875 L 1.125 -3.015625 L 4.828125 -5.953125 Z M 5.859375 -4.640625 "/></g></g></g><g fill="#fff9f9" fill-opacity="1"><g transform="translate(313.064598, 29.864784)"><g><path d="M 4.5 -1.671875 C 4.070312 -1.492188 3.609375 -1.363281 3.109375 -1.28125 C 2.609375 -1.207031 2.117188 -1.207031 1.640625 -1.28125 C 1.160156 -1.351562 0.707031 -1.535156 0.28125 -1.828125 C -0.144531 -2.128906 -0.507812 -2.5625 -0.8125 -3.125 L 0.953125 -3.875 C 1.234375 -3.5 1.539062 -3.234375 1.875 -3.078125 C 2.21875 -2.929688 2.5625 -2.875 2.90625 -2.90625 C 3.25 -2.9375 3.578125 -3.019531 3.890625 -3.15625 C 4.359375 -3.34375 4.707031 -3.601562 4.9375 -3.9375 C 5.175781 -4.28125 5.207031 -4.664062 5.03125 -5.09375 C 4.894531 -5.414062 4.6875 -5.617188 4.40625 -5.703125 C 4.132812 -5.796875 3.8125 -5.820312 3.4375 -5.78125 C 3.0625 -5.738281 2.664062 -5.679688 2.25 -5.609375 C 1.832031 -5.535156 1.414062 -5.46875 1 -5.40625 C 0.582031 -5.351562 0.179688 -5.351562 -0.203125 -5.40625 C -0.585938 -5.457031 -0.9375 -5.597656 -1.25 -5.828125 C -1.570312 -6.066406 -1.832031 -6.425781 -2.03125 -6.90625 C -2.28125 -7.488281 -2.34375 -8.035156 -2.21875 -8.546875 C -2.101562 -9.066406 -1.847656 -9.523438 -1.453125 -9.921875 C -1.054688 -10.316406 -0.550781 -10.644531 0.0625 -10.90625 C 0.65625 -11.15625 1.253906 -11.285156 1.859375 -11.296875 C 2.460938 -11.304688 3.03125 -11.175781 3.5625 -10.90625 C 4.09375 -10.632812 4.546875 -10.191406 4.921875 -9.578125 L 3.171875 -8.84375 C 2.859375 -9.269531 2.472656 -9.523438 2.015625 -9.609375 C 1.566406 -9.691406 1.109375 -9.632812 0.640625 -9.4375 C 0.210938 -9.257812 -0.0976562 -9.019531 -0.296875 -8.71875 C -0.503906 -8.425781 -0.535156 -8.109375 -0.390625 -7.765625 C -0.273438 -7.484375 -0.0859375 -7.300781 0.171875 -7.21875 C 0.441406 -7.144531 0.753906 -7.128906 1.109375 -7.171875 C 1.460938 -7.210938 1.835938 -7.269531 2.234375 -7.34375 C 2.660156 -7.414062 3.085938 -7.472656 3.515625 -7.515625 C 3.953125 -7.554688 4.375 -7.546875 4.78125 -7.484375 C 5.195312 -7.429688 5.570312 -7.285156 5.90625 -7.046875 C 6.238281 -6.804688 6.515625 -6.425781 6.734375 -5.90625 C 7.085938 -5.050781 7.070312 -4.242188 6.6875 -3.484375 C 6.3125 -2.722656 5.582031 -2.117188 4.5 -1.671875 Z M 4.5 -1.671875 "/></g></g></g><g fill="#fff9f9" fill-opacity="1"><g transform="translate(323.12049, 25.996496)"><g><path d="M 4.96875 -0.59375 L 3.125 -0.375 L 2.140625 -8.515625 L -0.859375 -8.15625 L -1.046875 -9.8125 L 6.78125 -10.75 L 6.96875 -9.09375 L 3.984375 -8.734375 Z M 4.96875 -0.59375 "/></g></g></g><g fill="#fff9f9" fill-opacity="1"><g transform="translate(333.294885, 25.249092)"><g><path d="M 1.59375 0.28125 C 1.300781 0.257812 1.0625 0.140625 0.875 -0.078125 C 0.6875 -0.304688 0.601562 -0.566406 0.625 -0.859375 C 0.644531 -1.128906 0.769531 -1.351562 1 -1.53125 C 1.226562 -1.71875 1.488281 -1.800781 1.78125 -1.78125 C 2.050781 -1.757812 2.269531 -1.632812 2.4375 -1.40625 C 2.613281 -1.1875 2.691406 -0.941406 2.671875 -0.671875 C 2.648438 -0.378906 2.53125 -0.144531 2.3125 0.03125 C 2.101562 0.21875 1.863281 0.300781 1.59375 0.28125 Z M 1.59375 0.28125 "/></g></g></g><g fill="#fff9f9" fill-opacity="1"><g transform="translate(338.735856, 25.887903)"><g/></g></g><g fill="#fff9f9" fill-opacity="1"><g transform="translate(344.126853, 27.15146)"><g><path d="M 7 3.390625 L 0.640625 0.3125 L 1.25 -0.953125 L 5.234375 -2.0625 C 5.992188 -2.269531 6.601562 -2.507812 7.0625 -2.78125 C 7.53125 -3.050781 7.863281 -3.394531 8.0625 -3.8125 C 8.257812 -4.207031 8.316406 -4.582031 8.234375 -4.9375 C 8.148438 -5.289062 7.875 -5.582031 7.40625 -5.8125 C 6.925781 -6.039062 6.476562 -6.070312 6.0625 -5.90625 C 5.644531 -5.738281 5.269531 -5.347656 4.9375 -4.734375 L 3.375 -5.484375 C 3.914062 -6.515625 4.59375 -7.179688 5.40625 -7.484375 C 6.226562 -7.796875 7.128906 -7.71875 8.109375 -7.25 C 8.671875 -6.96875 9.113281 -6.613281 9.4375 -6.1875 C 9.757812 -5.757812 9.945312 -5.289062 10 -4.78125 C 10.050781 -4.28125 9.945312 -3.757812 9.6875 -3.21875 C 9.4375 -2.695312 9.09375 -2.265625 8.65625 -1.921875 C 8.21875 -1.578125 7.75 -1.296875 7.25 -1.078125 C 6.75 -0.859375 6.273438 -0.691406 5.828125 -0.578125 L 3.859375 0.015625 L 7.734375 1.890625 Z M 7 3.390625 "/></g></g></g><g fill="#fff9f9" fill-opacity="1"><g transform="translate(353.178578, 31.781927)"><g><path d="M 3.140625 3.03125 C 2.585938 2.539062 2.222656 1.984375 2.046875 1.359375 C 1.867188 0.742188 1.921875 0.0546875 2.203125 -0.703125 C 2.484375 -1.472656 3.03125 -2.316406 3.84375 -3.234375 C 4.644531 -4.140625 5.398438 -4.773438 6.109375 -5.140625 C 6.828125 -5.503906 7.5 -5.632812 8.125 -5.53125 C 8.75 -5.4375 9.34375 -5.144531 9.90625 -4.65625 C 10.457031 -4.15625 10.816406 -3.597656 10.984375 -2.984375 C 11.148438 -2.367188 11.09375 -1.675781 10.8125 -0.90625 C 10.539062 -0.144531 10 0.6875 9.1875 1.59375 C 8.394531 2.488281 7.640625 3.117188 6.921875 3.484375 C 6.203125 3.859375 5.53125 4 4.90625 3.90625 C 4.28125 3.8125 3.691406 3.519531 3.140625 3.03125 Z M 4.21875 1.765625 C 4.476562 1.992188 4.769531 2.117188 5.09375 2.140625 C 5.425781 2.160156 5.8125 2.03125 6.25 1.75 C 6.695312 1.46875 7.210938 0.992188 7.796875 0.328125 C 8.390625 -0.335938 8.796875 -0.90625 9.015625 -1.375 C 9.242188 -1.851562 9.320312 -2.253906 9.25 -2.578125 C 9.1875 -2.910156 9.03125 -3.191406 8.78125 -3.421875 C 8.519531 -3.640625 8.222656 -3.753906 7.890625 -3.765625 C 7.554688 -3.785156 7.171875 -3.65625 6.734375 -3.375 C 6.304688 -3.101562 5.800781 -2.632812 5.21875 -1.96875 C 4.625 -1.3125 4.210938 -0.742188 3.984375 -0.265625 C 3.765625 0.210938 3.679688 0.609375 3.734375 0.921875 C 3.796875 1.242188 3.957031 1.523438 4.21875 1.765625 Z M 4.21875 1.765625 "/></g></g></g><g fill="#fff9f9" fill-opacity="1"><g transform="translate(360.816068, 38.910584)"><g><path d="M 4.203125 6.546875 L 0.390625 0.609375 L 1.578125 -0.15625 L 5.53125 0.96875 C 6.289062 1.1875 6.941406 1.300781 7.484375 1.3125 C 8.023438 1.332031 8.488281 1.21875 8.875 0.96875 C 9.25 0.726562 9.488281 0.429688 9.59375 0.078125 C 9.707031 -0.265625 9.625 -0.65625 9.34375 -1.09375 C 9.050781 -1.539062 8.6875 -1.800781 8.25 -1.875 C 7.8125 -1.945312 7.285156 -1.804688 6.671875 -1.453125 L 5.734375 -2.90625 C 6.742188 -3.5 7.675781 -3.710938 8.53125 -3.546875 C 9.382812 -3.390625 10.101562 -2.851562 10.6875 -1.9375 C 11.03125 -1.40625 11.226562 -0.875 11.28125 -0.34375 C 11.332031 0.1875 11.25 0.679688 11.03125 1.140625 C 10.8125 1.609375 10.445312 2.003906 9.9375 2.328125 C 9.457031 2.640625 8.941406 2.828125 8.390625 2.890625 C 7.835938 2.953125 7.289062 2.941406 6.75 2.859375 C 6.207031 2.785156 5.710938 2.6875 5.265625 2.5625 L 3.28125 2.015625 L 5.609375 5.640625 Z M 4.203125 6.546875 "/></g></g></g><g fill="#fff9f9" fill-opacity="1"><g transform="translate(366.11082, 47.598272)"><g><path d="M 1.0625 4.09375 C 0.875 3.476562 0.820312 2.882812 0.90625 2.3125 C 1 1.75 1.222656 1.25 1.578125 0.8125 C 1.929688 0.382812 2.394531 0.046875 2.96875 -0.203125 L 3.515625 1.59375 C 3.097656 1.8125 2.820312 2.097656 2.6875 2.453125 C 2.550781 2.816406 2.546875 3.210938 2.671875 3.640625 C 2.828125 4.140625 3.117188 4.476562 3.546875 4.65625 C 3.972656 4.832031 4.453125 4.835938 4.984375 4.671875 C 5.503906 4.515625 5.878906 4.238281 6.109375 3.84375 C 6.347656 3.445312 6.394531 3.007812 6.25 2.53125 C 6.03125 1.832031 5.539062 1.414062 4.78125 1.28125 L 4.25 -0.453125 L 9.984375 -1.125 L 11.59375 4.109375 L 10 4.609375 L 8.78125 0.671875 L 6.640625 0.921875 C 6.921875 1.078125 7.171875 1.285156 7.390625 1.546875 C 7.609375 1.816406 7.765625 2.117188 7.859375 2.453125 C 8.046875 3.046875 8.070312 3.609375 7.9375 4.140625 C 7.800781 4.679688 7.523438 5.148438 7.109375 5.546875 C 6.703125 5.953125 6.175781 6.253906 5.53125 6.453125 C 4.851562 6.660156 4.210938 6.703125 3.609375 6.578125 C 3.015625 6.453125 2.492188 6.175781 2.046875 5.75 C 1.609375 5.332031 1.28125 4.78125 1.0625 4.09375 Z M 1.0625 4.09375 "/></g></g></g><g fill="#fff9f9" fill-opacity="1"><g transform="translate(10.316971, 85.507509)"><g><path d="M 57.046875 0 L 33.21875 0 L 33.21875 -28.328125 C 33.21875 -29.859375 32.832031 -31.003906 32.0625 -31.765625 C 31.300781 -32.523438 30.40625 -32.90625 29.375 -32.90625 C 28.34375 -32.90625 27.441406 -32.539062 26.671875 -31.8125 C 25.910156 -31.082031 25.53125 -29.953125 25.53125 -28.421875 L 25.53125 0 L 1 0 L 1 -29.421875 C 1 -34.671875 1.8125 -39.09375 3.4375 -42.6875 C 5.070312 -46.28125 7.265625 -49.171875 10.015625 -51.359375 C 12.773438 -53.554688 15.832031 -55.148438 19.1875 -56.140625 C 22.550781 -57.140625 25.960938 -57.640625 29.421875 -57.640625 C 32.210938 -57.640625 34.96875 -57.15625 37.6875 -56.1875 C 40.414062 -55.226562 42.910156 -53.617188 45.171875 -51.359375 C 47.109375 -53.484375 49.488281 -55.046875 52.3125 -56.046875 C 55.132812 -57.046875 57.910156 -57.578125 60.640625 -57.640625 C 64.160156 -57.640625 67.613281 -57.125 71 -56.09375 C 74.394531 -55.0625 77.472656 -53.429688 80.234375 -51.203125 C 82.992188 -48.984375 85.203125 -46.078125 86.859375 -42.484375 C 88.523438 -38.890625 89.359375 -34.535156 89.359375 -29.421875 L 89.359375 0 L 64.828125 0 L 64.828125 -28.421875 C 64.828125 -29.953125 64.425781 -31.082031 63.625 -31.8125 C 62.832031 -32.539062 61.9375 -32.90625 60.9375 -32.90625 C 59.9375 -32.90625 59.035156 -32.523438 58.234375 -31.765625 C 57.441406 -31.003906 57.046875 -29.859375 57.046875 -28.328125 Z M 57.046875 0 "/></g></g></g><path stroke-linecap="butt" transform="matrix(0.725402, 0, 0, 0.725402, 191.434896, -6.323237)" fill="none" stroke-linejoin="miter" d="M 37.154307 57.429057 L 66.35685 57.429057 L 66.35685 123.997714 L 37.154307 123.997714 Z M 37.154307 57.429057 " stroke="#fff9f9" stroke-width="5.043347" stroke-opacity="1" stroke-miterlimit="4"/><g fill="#fff9f9" fill-opacity="1"><g transform="translate(217.526713, 83.626658)"><g><path d="M 0.859375 -48.296875 L 22.03125 -48.296875 L 22.03125 0 L 0.859375 0 Z M 0.859375 -48.296875 "/></g></g></g><g fill="#fff9f9" fill-opacity="1"><g transform="translate(98.414288, 86.453093)"><g><path d="M 28.1875 -54.46875 C 31.945312 -54.46875 35.460938 -53.757812 38.734375 -52.34375 C 42.003906 -50.9375 44.894531 -48.992188 47.40625 -46.515625 C 49.914062 -44.035156 51.878906 -41.144531 53.296875 -37.84375 C 54.710938 -34.539062 55.421875 -31.003906 55.421875 -27.234375 L 55.421875 0 L 32.796875 0 L 32.796875 -27.234375 C 32.796875 -28.492188 32.335938 -29.59375 31.421875 -30.53125 C 30.515625 -31.476562 29.4375 -31.953125 28.1875 -31.953125 C 26.863281 -31.953125 25.742188 -31.476562 24.828125 -30.53125 C 23.921875 -29.59375 23.46875 -28.492188 23.46875 -27.234375 C 23.46875 -25.984375 23.921875 -24.882812 24.828125 -23.9375 C 25.742188 -23 26.863281 -22.53125 28.1875 -22.53125 L 31.484375 -22.53125 L 31.484375 0 L 28.1875 0 C 24.414062 0 20.878906 -0.703125 17.578125 -2.109375 C 14.273438 -3.523438 11.382812 -5.488281 8.90625 -8 C 6.425781 -10.519531 4.476562 -13.410156 3.0625 -16.671875 C 1.644531 -19.941406 0.9375 -23.460938 0.9375 -27.234375 C 0.9375 -31.003906 1.644531 -34.539062 3.0625 -37.84375 C 4.476562 -41.144531 6.425781 -44.035156 8.90625 -46.515625 C 11.382812 -48.992188 14.273438 -50.9375 17.578125 -52.34375 C 20.878906 -53.757812 24.414062 -54.46875 28.1875 -54.46875 Z M 28.1875 -54.46875 "/></g></g></g><g fill="#fff9f9" fill-opacity="1"><g transform="translate(154.683509, 86.453093)"><g><path d="M 28.1875 -54.46875 C 31.945312 -54.46875 35.460938 -53.757812 38.734375 -52.34375 C 42.003906 -50.9375 44.894531 -48.992188 47.40625 -46.515625 C 49.914062 -44.035156 51.878906 -41.144531 53.296875 -37.84375 C 54.710938 -34.539062 55.421875 -31.003906 55.421875 -27.234375 L 55.421875 0 L 32.796875 0 L 32.796875 -27.234375 C 32.796875 -28.492188 32.335938 -29.59375 31.421875 -30.53125 C 30.515625 -31.476562 29.4375 -31.953125 28.1875 -31.953125 C 26.863281 -31.953125 25.742188 -31.476562 24.828125 -30.53125 C 23.921875 -29.59375 23.46875 -28.492188 23.46875 -27.234375 C 23.46875 -25.984375 23.921875 -24.882812 24.828125 -23.9375 C 25.742188 -23 26.863281 -22.53125 28.1875 -22.53125 L 31.484375 -22.53125 L 31.484375 0 L 28.1875 0 C 24.414062 0 20.878906 -0.703125 17.578125 -2.109375 C 14.273438 -3.523438 11.382812 -5.488281 8.90625 -8 C 6.425781 -10.519531 4.476562 -13.410156 3.0625 -16.671875 C 1.644531 -19.941406 0.9375 -23.460938 0.9375 -27.234375 C 0.9375 -31.003906 1.644531 -34.539062 3.0625 -37.84375 C 4.476562 -41.144531 6.425781 -44.035156 8.90625 -46.515625 C 11.382812 -48.992188 14.273438 -50.9375 17.578125 -52.34375 C 20.878906 -53.757812 24.414062 -54.46875 28.1875 -54.46875 Z M 28.1875 -54.46875 "/></g></g></g><g fill="#fff9f9" fill-opacity="1"><g transform="translate(8.012375, 118.828611)"><g><path d="M 6.59375 -12.765625 C 7.5 -12.765625 8.273438 -12.59375 8.921875 -12.25 C 9.578125 -11.914062 10.070312 -11.445312 10.40625 -10.84375 C 10.738281 -10.25 10.90625 -9.550781 10.90625 -8.75 C 10.90625 -7.957031 10.738281 -7.257812 10.40625 -6.65625 C 10.070312 -6.0625 9.578125 -5.59375 8.921875 -5.25 C 8.273438 -4.914062 7.5 -4.75 6.59375 -4.75 L 4.1875 -4.75 L 4.1875 0 L 1.65625 0 L 1.65625 -12.765625 Z M 6.265625 -6.75 C 7.660156 -6.75 8.359375 -7.414062 8.359375 -8.75 C 8.359375 -10.09375 7.660156 -10.765625 6.265625 -10.765625 L 4.1875 -10.765625 L 4.1875 -6.75 Z M 6.265625 -6.75 "/></g></g></g><g fill="#fff9f9" fill-opacity="1"><g transform="translate(19.674419, 118.828611)"><g><path d="M 1.65625 0 L 1.65625 -12.765625 L 6.78125 -12.765625 C 8.101562 -12.765625 9.097656 -12.457031 9.765625 -11.84375 C 10.441406 -11.238281 10.78125 -10.398438 10.78125 -9.328125 C 10.78125 -8.554688 10.582031 -7.921875 10.1875 -7.421875 C 9.789062 -6.929688 9.207031 -6.554688 8.4375 -6.296875 L 8.4375 -6.109375 C 8.832031 -5.929688 9.15625 -5.671875 9.40625 -5.328125 C 9.65625 -4.984375 9.890625 -4.476562 10.109375 -3.8125 L 11.375 0 L 8.796875 0 L 7.546875 -3.8125 C 7.410156 -4.195312 7.265625 -4.492188 7.109375 -4.703125 C 6.953125 -4.921875 6.75 -5.078125 6.5 -5.171875 C 6.25 -5.265625 5.925781 -5.3125 5.53125 -5.3125 L 4.1875 -5.3125 L 4.1875 0 Z M 6.46875 -7.3125 C 7.695312 -7.3125 8.3125 -7.882812 8.3125 -9.03125 C 8.3125 -10.1875 7.695312 -10.765625 6.46875 -10.765625 L 4.1875 -10.765625 L 4.1875 -7.3125 Z M 6.46875 -7.3125 "/></g></g></g><g fill="#fff9f9" fill-opacity="1"><g transform="translate(31.607068, 118.828611)"><g><path d="M 6.953125 0.1875 C 5.785156 0.1875 4.753906 -0.0507812 3.859375 -0.53125 C 2.960938 -1.007812 2.257812 -1.738281 1.75 -2.71875 C 1.25 -3.695312 1 -4.914062 1 -6.375 C 1 -7.84375 1.25 -9.066406 1.75 -10.046875 C 2.257812 -11.023438 2.960938 -11.75 3.859375 -12.21875 C 4.753906 -12.695312 5.785156 -12.9375 6.953125 -12.9375 C 8.117188 -12.9375 9.144531 -12.695312 10.03125 -12.21875 C 10.925781 -11.75 11.625 -11.023438 12.125 -10.046875 C 12.632812 -9.066406 12.890625 -7.84375 12.890625 -6.375 C 12.890625 -4.914062 12.632812 -3.691406 12.125 -2.703125 C 11.625 -1.722656 10.925781 -0.992188 10.03125 -0.515625 C 9.144531 -0.046875 8.117188 0.1875 6.953125 0.1875 Z M 6.953125 -2 C 8.035156 -2 8.863281 -2.347656 9.4375 -3.046875 C 10.007812 -3.742188 10.296875 -4.851562 10.296875 -6.375 C 10.296875 -7.90625 10.007812 -9.019531 9.4375 -9.71875 C 8.863281 -10.414062 8.035156 -10.765625 6.953125 -10.765625 C 5.867188 -10.765625 5.039062 -10.414062 4.46875 -9.71875 C 3.894531 -9.019531 3.609375 -7.90625 3.609375 -6.375 C 3.609375 -4.851562 3.894531 -3.742188 4.46875 -3.046875 C 5.039062 -2.347656 5.867188 -2 6.953125 -2 Z M 6.953125 -2 "/></g></g></g><g fill="#fff9f9" fill-opacity="1"><g transform="translate(45.512488, 118.828611)"><g><path d="M 6.59375 -12.765625 C 7.5 -12.765625 8.273438 -12.59375 8.921875 -12.25 C 9.578125 -11.914062 10.070312 -11.445312 10.40625 -10.84375 C 10.738281 -10.25 10.90625 -9.550781 10.90625 -8.75 C 10.90625 -7.957031 10.738281 -7.257812 10.40625 -6.65625 C 10.070312 -6.0625 9.578125 -5.59375 8.921875 -5.25 C 8.273438 -4.914062 7.5 -4.75 6.59375 -4.75 L 4.1875 -4.75 L 4.1875 0 L 1.65625 0 L 1.65625 -12.765625 Z M 6.265625 -6.75 C 7.660156 -6.75 8.359375 -7.414062 8.359375 -8.75 C 8.359375 -10.09375 7.660156 -10.765625 6.265625 -10.765625 L 4.1875 -10.765625 L 4.1875 -6.75 Z M 6.265625 -6.75 "/></g></g></g><g fill="#fff9f9" fill-opacity="1"><g transform="translate(57.174531, 118.828611)"><g><path d="M 4.1875 -5.609375 L 4.1875 -2.109375 L 10.265625 -2.109375 L 10.265625 0 L 1.65625 0 L 1.65625 -12.765625 L 10.140625 -12.765625 L 10.140625 -10.640625 L 4.1875 -10.640625 L 4.1875 -7.65625 L 9.375 -7.65625 L 9.375 -5.609375 Z M 4.1875 -5.609375 "/></g></g></g><g fill="#fff9f9" fill-opacity="1"><g transform="translate(68.146982, 118.828611)"><g><path d="M 1.65625 0 L 1.65625 -12.765625 L 6.78125 -12.765625 C 8.101562 -12.765625 9.097656 -12.457031 9.765625 -11.84375 C 10.441406 -11.238281 10.78125 -10.398438 10.78125 -9.328125 C 10.78125 -8.554688 10.582031 -7.921875 10.1875 -7.421875 C 9.789062 -6.929688 9.207031 -6.554688 8.4375 -6.296875 L 8.4375 -6.109375 C 8.832031 -5.929688 9.15625 -5.671875 9.40625 -5.328125 C 9.65625 -4.984375 9.890625 -4.476562 10.109375 -3.8125 L 11.375 0 L 8.796875 0 L 7.546875 -3.8125 C 7.410156 -4.195312 7.265625 -4.492188 7.109375 -4.703125 C 6.953125 -4.921875 6.75 -5.078125 6.5 -5.171875 C 6.25 -5.265625 5.925781 -5.3125 5.53125 -5.3125 L 4.1875 -5.3125 L 4.1875 0 Z M 6.46875 -7.3125 C 7.695312 -7.3125 8.3125 -7.882812 8.3125 -9.03125 C 8.3125 -10.1875 7.695312 -10.765625 6.46875 -10.765625 L 4.1875 -10.765625 L 4.1875 -7.3125 Z M 6.46875 -7.3125 "/></g></g></g><g fill="#fff9f9" fill-opacity="1"><g transform="translate(80.079631, 118.828611)"><g><path d="M 10.234375 -12.765625 L 10.234375 -10.640625 L 6.546875 -10.640625 L 6.546875 0 L 4.03125 0 L 4.03125 -10.640625 L 0.34375 -10.640625 L 0.34375 -12.765625 Z M 10.234375 -12.765625 "/></g></g></g><g fill="#fff9f9" fill-opacity="1"><g transform="translate(90.65927, 118.828611)"><g><path d="M 6.984375 0 L 4.46875 0 L 4.46875 -5.015625 L 0.0625 -12.765625 L 2.765625 -12.765625 L 5.6875 -7.734375 L 5.90625 -7.734375 L 8.75 -12.765625 L 11.40625 -12.765625 L 6.984375 -5.015625 Z M 6.984375 0 "/></g></g></g><g fill="#fff9f9" fill-opacity="1"><g transform="translate(147.840894, 118.828611)"><g><path d="M 6.96875 0.1875 C 5.789062 0.1875 4.753906 -0.0546875 3.859375 -0.546875 C 2.960938 -1.035156 2.257812 -1.769531 1.75 -2.75 C 1.25 -3.726562 1 -4.9375 1 -6.375 C 1 -7.8125 1.25 -9.019531 1.75 -10 C 2.257812 -10.988281 2.960938 -11.722656 3.859375 -12.203125 C 4.753906 -12.691406 5.789062 -12.9375 6.96875 -12.9375 C 8.195312 -12.9375 9.238281 -12.695312 10.09375 -12.21875 C 10.957031 -11.738281 11.570312 -11.007812 11.9375 -10.03125 L 10.09375 -8.90625 L 9.875 -8.90625 C 9.601562 -9.570312 9.234375 -10.046875 8.765625 -10.328125 C 8.296875 -10.617188 7.695312 -10.765625 6.96875 -10.765625 C 5.914062 -10.765625 5.09375 -10.414062 4.5 -9.71875 C 3.90625 -9.019531 3.609375 -7.90625 3.609375 -6.375 C 3.609375 -4.863281 3.90625 -3.753906 4.5 -3.046875 C 5.09375 -2.347656 5.914062 -2 6.96875 -2 C 8.632812 -2 9.648438 -2.804688 10.015625 -4.421875 L 10.234375 -4.421875 L 12.09375 -3.453125 C 11.75 -2.234375 11.15625 -1.320312 10.3125 -0.71875 C 9.46875 -0.113281 8.351562 0.1875 6.96875 0.1875 Z M 6.96875 0.1875 "/></g></g></g><g fill="#fff9f9" fill-opacity="1"><g transform="translate(160.358387, 118.828611)"><g><path d="M 6.765625 0.1875 C 5.003906 0.1875 3.695312 -0.226562 2.84375 -1.0625 C 2 -1.90625 1.578125 -3.144531 1.578125 -4.78125 L 1.578125 -12.765625 L 4.046875 -12.765625 L 4.046875 -4.796875 C 4.046875 -3.867188 4.269531 -3.171875 4.71875 -2.703125 C 5.164062 -2.234375 5.847656 -2 6.765625 -2 C 8.578125 -2 9.484375 -2.929688 9.484375 -4.796875 L 9.484375 -12.765625 L 11.953125 -12.765625 L 11.953125 -4.78125 C 11.953125 -3.144531 11.523438 -1.90625 10.671875 -1.0625 C 9.828125 -0.226562 8.523438 0.1875 6.765625 0.1875 Z M 6.765625 0.1875 "/></g></g></g><g fill="#fff9f9" fill-opacity="1"><g transform="translate(173.888452, 118.828611)"><g><path d="M 4.1875 0 L 1.65625 0 L 1.65625 -12.765625 L 4.1875 -12.765625 Z M 4.1875 0 "/></g></g></g><g fill="#fff9f9" fill-opacity="1"><g transform="translate(179.736932, 118.828611)"><g><path d="M 5.65625 0.1875 C 4.769531 0.1875 3.984375 0.078125 3.296875 -0.140625 C 2.609375 -0.359375 2.03125 -0.644531 1.5625 -1 C 1.101562 -1.351562 0.753906 -1.742188 0.515625 -2.171875 L 1.90625 -3.859375 L 2.125 -3.859375 C 2.507812 -3.296875 2.992188 -2.84375 3.578125 -2.5 C 4.171875 -2.164062 4.863281 -2 5.65625 -2 C 6.332031 -2 6.84375 -2.140625 7.1875 -2.421875 C 7.53125 -2.710938 7.703125 -3.109375 7.703125 -3.609375 C 7.703125 -3.910156 7.644531 -4.160156 7.53125 -4.359375 C 7.414062 -4.566406 7.226562 -4.742188 6.96875 -4.890625 C 6.71875 -5.035156 6.375 -5.160156 5.9375 -5.265625 L 4.296875 -5.640625 C 3.148438 -5.898438 2.296875 -6.332031 1.734375 -6.9375 C 1.179688 -7.550781 0.90625 -8.34375 0.90625 -9.3125 C 0.90625 -10.03125 1.082031 -10.660156 1.4375 -11.203125 C 1.800781 -11.753906 2.328125 -12.179688 3.015625 -12.484375 C 3.703125 -12.785156 4.523438 -12.9375 5.484375 -12.9375 C 6.472656 -12.9375 7.316406 -12.804688 8.015625 -12.546875 C 8.710938 -12.296875 9.304688 -11.898438 9.796875 -11.359375 L 8.546875 -9.65625 L 8.328125 -9.65625 C 7.960938 -10.03125 7.546875 -10.3125 7.078125 -10.5 C 6.617188 -10.6875 6.085938 -10.78125 5.484375 -10.78125 C 4.796875 -10.78125 4.269531 -10.660156 3.90625 -10.421875 C 3.550781 -10.179688 3.375 -9.84375 3.375 -9.40625 C 3.375 -9.007812 3.5 -8.691406 3.75 -8.453125 C 4 -8.210938 4.4375 -8.023438 5.0625 -7.890625 L 6.734375 -7.546875 C 7.972656 -7.273438 8.867188 -6.828125 9.421875 -6.203125 C 9.984375 -5.578125 10.265625 -4.765625 10.265625 -3.765625 C 10.265625 -2.960938 10.09375 -2.265625 9.75 -1.671875 C 9.414062 -1.085938 8.898438 -0.628906 8.203125 -0.296875 C 7.515625 0.0234375 6.664062 0.1875 5.65625 0.1875 Z M 5.65625 0.1875 "/></g></g></g><g fill="#fff9f9" fill-opacity="1"><g transform="translate(190.700649, 118.828611)"><g><path d="M 4.1875 0 L 1.65625 0 L 1.65625 -12.765625 L 4.1875 -12.765625 Z M 4.1875 0 "/></g></g></g><g fill="#fff9f9" fill-opacity="1"><g transform="translate(196.549129, 118.828611)"><g><path d="M 4.109375 0 L 1.65625 0 L 1.65625 -12.765625 L 4.546875 -12.765625 L 9.671875 -4.53125 L 9.890625 -4.578125 L 9.890625 -12.765625 L 12.328125 -12.765625 L 12.328125 0 L 9.734375 0 L 4.328125 -8.78125 L 4.109375 -8.75 Z M 4.109375 0 "/></g></g></g><g fill="#fff9f9" fill-opacity="1"><g transform="translate(210.54184, 118.828611)"><g><path d="M 4.1875 -5.609375 L 4.1875 -2.109375 L 10.265625 -2.109375 L 10.265625 0 L 1.65625 0 L 1.65625 -12.765625 L 10.140625 -12.765625 L 10.140625 -10.640625 L 4.1875 -10.640625 L 4.1875 -7.65625 L 9.375 -7.65625 L 9.375 -5.609375 Z M 4.1875 -5.609375 "/></g></g></g><g fill="#fff9f9" fill-opacity="1"><g transform="translate(268.596011, 118.828611)"><g><path d="M 4.1875 -12.765625 L 4.1875 -2.109375 L 9.921875 -2.109375 L 9.921875 0 L 1.65625 0 L 1.65625 -12.765625 Z M 4.1875 -12.765625 "/></g></g></g><g fill="#fff9f9" fill-opacity="1"><g transform="translate(278.931235, 118.828611)"><g><path d="M 4.1875 0 L 1.65625 0 L 1.65625 -12.765625 L 4.1875 -12.765625 Z M 4.1875 0 "/></g></g></g><g fill="#fff9f9" fill-opacity="1"><g transform="translate(284.779714, 118.828611)"><g><path d="M 9.75 -12.765625 L 9.75 -10.640625 L 4.1875 -10.640625 L 4.1875 -7.265625 L 9.234375 -7.265625 L 9.234375 -5.1875 L 4.1875 -5.1875 L 4.1875 0 L 1.65625 0 L 1.65625 -12.765625 Z M 9.75 -12.765625 "/></g></g></g><g fill="#fff9f9" fill-opacity="1"><g transform="translate(295.097481, 118.828611)"><g><path d="M 4.1875 -5.609375 L 4.1875 -2.109375 L 10.265625 -2.109375 L 10.265625 0 L 1.65625 0 L 1.65625 -12.765625 L 10.140625 -12.765625 L 10.140625 -10.640625 L 4.1875 -10.640625 L 4.1875 -7.65625 L 9.375 -7.65625 L 9.375 -5.609375 Z M 4.1875 -5.609375 "/></g></g></g><g fill="#fff9f9" fill-opacity="1"><g transform="translate(306.069932, 118.828611)"><g><path d="M 5.65625 0.1875 C 4.769531 0.1875 3.984375 0.078125 3.296875 -0.140625 C 2.609375 -0.359375 2.03125 -0.644531 1.5625 -1 C 1.101562 -1.351562 0.753906 -1.742188 0.515625 -2.171875 L 1.90625 -3.859375 L 2.125 -3.859375 C 2.507812 -3.296875 2.992188 -2.84375 3.578125 -2.5 C 4.171875 -2.164062 4.863281 -2 5.65625 -2 C 6.332031 -2 6.84375 -2.140625 7.1875 -2.421875 C 7.53125 -2.710938 7.703125 -3.109375 7.703125 -3.609375 C 7.703125 -3.910156 7.644531 -4.160156 7.53125 -4.359375 C 7.414062 -4.566406 7.226562 -4.742188 6.96875 -4.890625 C 6.71875 -5.035156 6.375 -5.160156 5.9375 -5.265625 L 4.296875 -5.640625 C 3.148438 -5.898438 2.296875 -6.332031 1.734375 -6.9375 C 1.179688 -7.550781 0.90625 -8.34375 0.90625 -9.3125 C 0.90625 -10.03125 1.082031 -10.660156 1.4375 -11.203125 C 1.800781 -11.753906 2.328125 -12.179688 3.015625 -12.484375 C 3.703125 -12.785156 4.523438 -12.9375 5.484375 -12.9375 C 6.472656 -12.9375 7.316406 -12.804688 8.015625 -12.546875 C 8.710938 -12.296875 9.304688 -11.898438 9.796875 -11.359375 L 8.546875 -9.65625 L 8.328125 -9.65625 C 7.960938 -10.03125 7.546875 -10.3125 7.078125 -10.5 C 6.617188 -10.6875 6.085938 -10.78125 5.484375 -10.78125 C 4.796875 -10.78125 4.269531 -10.660156 3.90625 -10.421875 C 3.550781 -10.179688 3.375 -9.84375 3.375 -9.40625 C 3.375 -9.007812 3.5 -8.691406 3.75 -8.453125 C 4 -8.210938 4.4375 -8.023438 5.0625 -7.890625 L 6.734375 -7.546875 C 7.972656 -7.273438 8.867188 -6.828125 9.421875 -6.203125 C 9.984375 -5.578125 10.265625 -4.765625 10.265625 -3.765625 C 10.265625 -2.960938 10.09375 -2.265625 9.75 -1.671875 C 9.414062 -1.085938 8.898438 -0.628906 8.203125 -0.296875 C 7.515625 0.0234375 6.664062 0.1875 5.65625 0.1875 Z M 5.65625 0.1875 "/></g></g></g><g fill="#fff9f9" fill-opacity="1"><g transform="translate(317.033649, 118.828611)"><g><path d="M 10.234375 -12.765625 L 10.234375 -10.640625 L 6.546875 -10.640625 L 6.546875 0 L 4.03125 0 L 4.03125 -10.640625 L 0.34375 -10.640625 L 0.34375 -12.765625 Z M 10.234375 -12.765625 "/></g></g></g><g fill="#fff9f9" fill-opacity="1"><g transform="translate(327.613287, 118.828611)"><g><path d="M 6.984375 0 L 4.46875 0 L 4.46875 -5.015625 L 0.0625 -12.765625 L 2.765625 -12.765625 L 5.6875 -7.734375 L 5.90625 -7.734375 L 8.75 -12.765625 L 11.40625 -12.765625 L 6.984375 -5.015625 Z M 6.984375 0 "/></g></g></g><g fill="#fff9f9" fill-opacity="1"><g transform="translate(339.074566, 118.828611)"><g><path d="M 4.1875 -12.765625 L 4.1875 -2.109375 L 9.921875 -2.109375 L 9.921875 0 L 1.65625 0 L 1.65625 -12.765625 Z M 4.1875 -12.765625 "/></g></g></g><g fill="#fff9f9" fill-opacity="1"><g transform="translate(349.40979, 118.828611)"><g><path d="M 4.1875 -5.609375 L 4.1875 -2.109375 L 10.265625 -2.109375 L 10.265625 0 L 1.65625 0 L 1.65625 -12.765625 L 10.140625 -12.765625 L 10.140625 -10.640625 L 4.1875 -10.640625 L 4.1875 -7.65625 L 9.375 -7.65625 L 9.375 -5.609375 Z M 4.1875 -5.609375 "/></g></g></g><g clip-path="url(#bf2a2061df)"><g clip-path="url(#1cca17485d)"><path fill="#fff9f9" d="M 119.195312 107.828125 L 128.398438 107.828125 L 128.398438 117.03125 L 119.195312 117.03125 Z M 119.195312 107.828125 " fill-opacity="1" fill-rule="nonzero"/></g></g><g clip-path="url(#cdf15dcfd9)"><g clip-path="url(#de873dd5d4)"><path fill="#fff9f9" d="M 240.636719 107.828125 L 249.835938 107.828125 L 249.835938 117.03125 L 240.636719 117.03125 Z M 240.636719 107.828125 " fill-opacity="1" fill-rule="nonzero"/></g></g><g clip-path="url(#e0a3b05cf8)"><g clip-path="url(#d1eeebb2e0)"><path fill="#fff9f9" d="M 218.96875 6.082031 L 238.734375 6.082031 L 238.734375 25.847656 L 218.96875 25.847656 Z M 218.96875 6.082031 " fill-opacity="1" fill-rule="nonzero"/></g></g></svg>